<svg id="Layer_1" data-name="Layer 1" xmlns="http://www.w3.org/2000/svg" xmlns:xlink="http://www.w3.org/1999/xlink" viewBox="0 0 72 72"><defs><style>.cls-1{fill:none;}.cls-2{clip-path:url(#clip-path);}.cls-3{fill:#ffb40d;}.cls-4{fill:#ffb40e;}.cls-5{fill:#ffb50f;}.cls-6{fill:#ffb511;}.cls-7{fill:#ffb512;}.cls-8{fill:#ffb613;}.cls-9{fill:#ffb614;}.cls-10{fill:#ffb715;}.cls-11{fill:#ffb716;}.cls-12{fill:#ffb718;}.cls-13{fill:#ffb819;}.cls-14{fill:#ffb81a;}.cls-15{fill:#ffb81b;}.cls-16{fill:#ffb91c;}.cls-17{fill:#ffb91d;}.cls-18{fill:#ffba1f;}.cls-19{fill:#ffba20;}.cls-20{fill:#ffba21;}.cls-21{fill:#fb2;}.cls-22{fill:#ffbb23;}.cls-23{fill:#ffbb24;}.cls-24{fill:#ffbc25;}.cls-25{fill:#ffbc27;}.cls-26{fill:#ffbc28;}.cls-27{fill:#ffbd29;}.cls-28{fill:#ffbd2a;}.cls-29{fill:#ffbd2b;}.cls-30{fill:#ffbe2c;}.cls-31{fill:#ffbe2d;}.cls-32{fill:#ffbf2e;}.cls-33{fill:#ffbf30;}.cls-34{fill:#ffbf31;}.cls-35{fill:#ffc032;}.cls-36{fill:#ffc033;}.cls-37{fill:#ffc034;}.cls-38{fill:#ffc135;}.cls-39{fill:#ffc136;}.cls-40{fill:#ffc137;}.cls-41{fill:#ffc238;}.cls-42{fill:#ffc23a;}.cls-43{fill:#ffc23b;}.cls-44{fill:#ffc33c;}.cls-45{fill:#ffc33d;}.cls-46{fill:#ffc33e;}.cls-47{fill:#ffc43f;}.cls-48{fill:#ffc440;}.cls-49{fill:#ffc441;}.cls-50{fill:#ffc542;}.cls-51{fill:#ffc543;}.cls-52{fill:#ffc544;}.cls-53{fill:#ffc645;}.cls-54{fill:#ffc646;}.cls-55{fill:#ffc647;}.cls-56{fill:#ffc748;}.cls-57{fill:#ffc74a;}.cls-58{fill:#ffc74b;}.cls-59{fill:#ffc84c;}.cls-60{fill:#ffc84d;}.cls-61{fill:#ffc84e;}.cls-62{fill:#ffc94f;}.cls-63{fill:#ffc950;}.cls-64{fill:#ffc951;}.cls-65{fill:#ffca52;}.cls-66{fill:#ffca53;}.cls-67{fill:#ffca54;}.cls-68{fill:#ffca55;}.cls-69{fill:#ffcb56;}.cls-70{fill:#ffcb57;}.cls-71{fill:#ffcb58;}.cls-72{fill:#ffcc59;}.cls-73{fill:#ffcc5a;}.cls-74{fill:#ffcc5b;}.cls-75{fill:#ffcd5b;}.cls-76{fill:#ffcd5c;}.cls-77{fill:#ffcd5d;}.cls-78{fill:#ffce5e;}.cls-79{fill:#ffce5f;}.cls-80{fill:#ffce60;}.cls-81{fill:#ffce61;}.cls-82{fill:#ffcf62;}.cls-83{fill:#ffcf63;}.cls-84{fill:#ffcf64;}.cls-85{fill:#ffd065;}.cls-86{fill:#ffd066;}.cls-87{fill:#ffd067;}.cls-88{fill:#ffd168;}.cls-89{fill:#ffd169;}.cls-90{fill:#ffd16a;}.cls-91{fill:#ffd16b;}.cls-92{fill:#ffd26b;}.cls-93{fill:#ffd26c;}.cls-94{fill:#ffd26d;}.cls-95{fill:#ffd26e;}.cls-96{fill:#ffd36f;}.cls-97{fill:#ffd370;}.cls-98{fill:#ffd371;}.cls-99{fill:#ffd472;}.cls-100{fill:#ffd473;}.cls-101{clip-path:url(#clip-path-2);}</style><clipPath id="clip-path"><path class="cls-1" d="M68.94,3.42a.39.39,0,0,0-.25-.17l-6-1.14a.39.39,0,0,0-.29.07.37.37,0,0,0-.15.25L60.47,16a.36.36,0,0,0,.3.42l4.47.86a.38.38,0,0,0,.44-.28L69,3.72A.4.4,0,0,0,68.94,3.42Z"/></clipPath><clipPath id="clip-path-2"><path class="cls-1" d="M64.55,19.8,60.08,19a.38.38,0,0,0-.45.3l-.85,4.46a.38.38,0,0,0,.3.45l4.47.85a.37.37,0,0,0,.44-.3l.86-4.47A.38.38,0,0,0,64.55,19.8Z"/></clipPath></defs><path d="M58.83,30.85a.33.33,0,0,0,.08-.61l-6.08-3.39h0l3.63-6a.34.34,0,0,0-.37-.5l-5.79,1.53A12.86,12.86,0,0,0,28,33.41c0,.08.05.15.07.23L5.33,32.08c-.53,7.74,5.59,14.8,14.63,18L3.78,58.61c8.57,2,19.57,1.72,31.07-1.18v4.8L33.29,63a1.54,1.54,0,1,0,1.42,2.74l1.86-1,5.89,1.64a2,2,0,0,0,.42.05,1.54,1.54,0,0,0,1.53-1.36,1.61,1.61,0,0,0-1.21-1.7L37.94,62V56.51A24.28,24.28,0,0,0,53.76,32.19ZM41.54,22.1a3.74,3.74,0,0,1,4.56,2.66,3.7,3.7,0,0,1,.12,1,4.33,4.33,0,0,0-7.15,1.47,3.86,3.86,0,0,1-.19-.54A3.73,3.73,0,0,1,41.54,22.1Z"/><g class="cls-2"><rect class="cls-3" x="60.44" y="2.09" width="8.57" height="15.2"/><circle class="cls-3" cx="64.36" cy="9.76" r="5.64"/><circle class="cls-4" cx="64.36" cy="9.76" r="5.58"/><circle class="cls-5" cx="64.36" cy="9.76" r="5.53"/><circle class="cls-6" cx="64.36" cy="9.76" r="5.47"/><circle class="cls-7" cx="64.36" cy="9.76" r="5.41"/><circle class="cls-8" cx="64.36" cy="9.76" r="5.36"/><circle class="cls-9" cx="64.36" cy="9.76" r="5.3"/><circle class="cls-10" cx="64.36" cy="9.76" r="5.25"/><circle class="cls-11" cx="64.36" cy="9.76" r="5.19"/><circle class="cls-12" cx="64.36" cy="9.76" r="5.14"/><circle class="cls-13" cx="64.36" cy="9.76" r="5.08"/><circle class="cls-14" cx="64.36" cy="9.76" r="5.03"/><circle class="cls-15" cx="64.36" cy="9.76" r="4.97"/><circle class="cls-16" cx="64.36" cy="9.76" r="4.92"/><circle class="cls-17" cx="64.36" cy="9.76" r="4.86"/><circle class="cls-18" cx="64.36" cy="9.76" r="4.81"/><circle class="cls-19" cx="64.36" cy="9.76" r="4.75"/><circle class="cls-20" cx="64.36" cy="9.76" r="4.7"/><circle class="cls-21" cx="64.36" cy="9.76" r="4.64"/><circle class="cls-22" cx="64.36" cy="9.76" r="4.59"/><circle class="cls-23" cx="64.36" cy="9.76" r="4.53"/><circle class="cls-24" cx="64.36" cy="9.76" r="4.48"/><circle class="cls-25" cx="64.36" cy="9.76" r="4.42"/><circle class="cls-26" cx="64.36" cy="9.76" r="4.36"/><circle class="cls-27" cx="64.36" cy="9.76" r="4.31"/><circle class="cls-28" cx="64.36" cy="9.76" r="4.25"/><circle class="cls-29" cx="64.36" cy="9.76" r="4.2"/><circle class="cls-30" cx="64.36" cy="9.76" r="4.14"/><circle class="cls-31" cx="64.36" cy="9.76" r="4.09"/><circle class="cls-32" cx="64.36" cy="9.76" r="4.03"/><circle class="cls-33" cx="64.36" cy="9.76" r="3.98"/><circle class="cls-34" cx="64.36" cy="9.76" r="3.92"/><circle class="cls-35" cx="64.36" cy="9.76" r="3.87"/><circle class="cls-36" cx="64.36" cy="9.76" r="3.81"/><circle class="cls-37" cx="64.36" cy="9.76" r="3.76"/><circle class="cls-38" cx="64.36" cy="9.76" r="3.7"/><circle class="cls-39" cx="64.36" cy="9.76" r="3.65"/><circle class="cls-40" cx="64.36" cy="9.76" r="3.59"/><circle class="cls-41" cx="64.36" cy="9.76" r="3.54"/><circle class="cls-42" cx="64.36" cy="9.76" r="3.48"/><circle class="cls-43" cx="64.36" cy="9.76" r="3.43"/><circle class="cls-44" cx="64.36" cy="9.76" r="3.37"/><circle class="cls-45" cx="64.36" cy="9.76" r="3.32"/><circle class="cls-46" cx="64.36" cy="9.76" r="3.26"/><circle class="cls-47" cx="64.36" cy="9.76" r="3.2"/><circle class="cls-48" cx="64.36" cy="9.76" r="3.15"/><circle class="cls-49" cx="64.36" cy="9.76" r="3.09"/><circle class="cls-50" cx="64.36" cy="9.76" r="3.04"/><circle class="cls-51" cx="64.36" cy="9.76" r="2.98"/><circle class="cls-52" cx="64.36" cy="9.76" r="2.93"/><circle class="cls-53" cx="64.36" cy="9.76" r="2.87"/><circle class="cls-54" cx="64.36" cy="9.76" r="2.82"/><circle class="cls-55" cx="64.36" cy="9.76" r="2.76"/><circle class="cls-56" cx="64.36" cy="9.76" r="2.71"/><circle class="cls-57" cx="64.36" cy="9.76" r="2.65"/><circle class="cls-58" cx="64.36" cy="9.76" r="2.6"/><circle class="cls-59" cx="64.36" cy="9.76" r="2.54"/><circle class="cls-60" cx="64.36" cy="9.76" r="2.49"/><circle class="cls-61" cx="64.36" cy="9.76" r="2.43"/><circle class="cls-62" cx="64.36" cy="9.76" r="2.38"/><circle class="cls-63" cx="64.36" cy="9.76" r="2.32"/><circle class="cls-64" cx="64.36" cy="9.76" r="2.27"/><circle class="cls-65" cx="64.36" cy="9.76" r="2.21"/><circle class="cls-66" cx="64.36" cy="9.76" r="2.15"/><circle class="cls-67" cx="64.36" cy="9.76" r="2.1"/><circle class="cls-68" cx="64.36" cy="9.76" r="2.04"/><circle class="cls-69" cx="64.36" cy="9.76" r="1.99"/><circle class="cls-70" cx="64.36" cy="9.76" r="1.93"/><circle class="cls-71" cx="64.36" cy="9.76" r="1.88"/><circle class="cls-72" cx="64.36" cy="9.76" r="1.82"/><circle class="cls-73" cx="64.36" cy="9.76" r="1.77"/><circle class="cls-74" cx="64.36" cy="9.76" r="1.71"/><circle class="cls-75" cx="64.36" cy="9.76" r="1.66"/><circle class="cls-76" cx="64.36" cy="9.76" r="1.6"/><circle class="cls-77" cx="64.36" cy="9.76" r="1.55"/><circle class="cls-78" cx="64.36" cy="9.76" r="1.49"/><circle class="cls-79" cx="64.36" cy="9.76" r="1.44"/><circle class="cls-80" cx="64.36" cy="9.76" r="1.38"/><circle class="cls-81" cx="64.36" cy="9.76" r="1.33"/><circle class="cls-82" cx="64.36" cy="9.76" r="1.27"/><circle class="cls-83" cx="64.36" cy="9.76" r="1.22"/><circle class="cls-84" cx="64.36" cy="9.76" r="1.16"/><circle class="cls-85" cx="64.36" cy="9.76" r="1.11"/><circle class="cls-86" cx="64.36" cy="9.76" r="1.05"/><circle class="cls-86" cx="64.36" cy="9.76" r="0.99"/><circle class="cls-87" cx="64.36" cy="9.76" r="0.94"/><circle class="cls-88" cx="64.36" cy="9.76" r="0.88"/><circle class="cls-89" cx="64.36" cy="9.76" r="0.83"/><circle class="cls-90" cx="64.36" cy="9.76" r="0.77"/><circle class="cls-91" cx="64.36" cy="9.76" r="0.72"/><circle class="cls-92" cx="64.36" cy="9.76" r="0.66"/><circle class="cls-93" cx="64.36" cy="9.76" r="0.61"/><circle class="cls-94" cx="64.36" cy="9.76" r="0.55"/><circle class="cls-95" cx="64.36" cy="9.76" r="0.5"/><circle class="cls-96" cx="64.36" cy="9.76" r="0.44"/><circle class="cls-96" cx="64.36" cy="9.76" r="0.39"/><circle class="cls-97" cx="64.36" cy="9.76" r="0.33"/><circle class="cls-98" cx="64.36" cy="9.76" r="0.28"/><circle class="cls-98" cx="64.36" cy="9.76" r="0.22"/><circle class="cls-99" cx="64.36" cy="9.76" r="0.17"/><circle class="cls-100" cx="64.36" cy="9.76" r="0.11"/><path class="cls-100" d="M64.41,9.77a.05.05,0,1,1-.1,0,.06.06,0,0,1,.06-.05A.06.06,0,0,1,64.41,9.77Z"/></g><g class="cls-101"><rect class="cls-3" x="58.74" y="18.91" width="6.15" height="6.15"/><circle class="cls-3" cx="61.81" cy="21.98" r="2.65"/><circle class="cls-4" cx="61.81" cy="21.98" r="2.63"/><circle class="cls-5" cx="61.81" cy="21.98" r="2.6"/><circle class="cls-6" cx="61.81" cy="21.98" r="2.58"/><circle class="cls-7" cx="61.81" cy="21.98" r="2.55"/><circle class="cls-8" cx="61.81" cy="21.98" r="2.52"/><circle class="cls-9" cx="61.81" cy="21.98" r="2.5"/><circle class="cls-10" cx="61.81" cy="21.98" r="2.47"/><circle class="cls-11" cx="61.81" cy="21.98" r="2.45"/><circle class="cls-12" cx="61.81" cy="21.98" r="2.42"/><circle class="cls-13" cx="61.81" cy="21.98" r="2.39"/><circle class="cls-14" cx="61.81" cy="21.98" r="2.37"/><circle class="cls-15" cx="61.81" cy="21.98" r="2.34"/><circle class="cls-16" cx="61.81" cy="21.98" r="2.32"/><circle class="cls-17" cx="61.81" cy="21.98" r="2.29"/><circle class="cls-18" cx="61.81" cy="21.98" r="2.26"/><circle class="cls-19" cx="61.81" cy="21.98" r="2.24"/><circle class="cls-20" cx="61.81" cy="21.98" r="2.21"/><circle class="cls-21" cx="61.81" cy="21.98" r="2.19"/><circle class="cls-22" cx="61.81" cy="21.98" r="2.16"/><circle class="cls-23" cx="61.81" cy="21.98" r="2.13"/><circle class="cls-24" cx="61.81" cy="21.98" r="2.11"/><circle class="cls-25" cx="61.81" cy="21.98" r="2.08"/><circle class="cls-26" cx="61.81" cy="21.98" r="2.06"/><circle class="cls-27" cx="61.81" cy="21.98" r="2.03"/><circle class="cls-28" cx="61.81" cy="21.98" r="2"/><circle class="cls-29" cx="61.81" cy="21.98" r="1.98"/><circle class="cls-30" cx="61.81" cy="21.98" r="1.95"/><circle class="cls-31" cx="61.81" cy="21.98" r="1.93"/><circle class="cls-32" cx="61.81" cy="21.98" r="1.9"/><circle class="cls-33" cx="61.81" cy="21.98" r="1.87"/><circle class="cls-34" cx="61.81" cy="21.98" r="1.85"/><circle class="cls-35" cx="61.81" cy="21.98" r="1.82"/><circle class="cls-36" cx="61.81" cy="21.98" r="1.8"/><circle class="cls-37" cx="61.81" cy="21.98" r="1.77"/><circle class="cls-38" cx="61.81" cy="21.98" r="1.74"/><circle class="cls-39" cx="61.81" cy="21.98" r="1.72"/><circle class="cls-40" cx="61.81" cy="21.98" r="1.69"/><circle class="cls-41" cx="61.81" cy="21.98" r="1.66"/><circle class="cls-42" cx="61.81" cy="21.98" r="1.64"/><circle class="cls-43" cx="61.81" cy="21.98" r="1.61"/><circle class="cls-44" cx="61.81" cy="21.98" r="1.59"/><circle class="cls-45" cx="61.81" cy="21.98" r="1.56"/><circle class="cls-46" cx="61.81" cy="21.98" r="1.53"/><circle class="cls-47" cx="61.81" cy="21.98" r="1.51"/><circle class="cls-48" cx="61.81" cy="21.98" r="1.48"/><circle class="cls-49" cx="61.81" cy="21.98" r="1.46"/><circle class="cls-50" cx="61.81" cy="21.98" r="1.43"/><circle class="cls-51" cx="61.81" cy="21.98" r="1.4"/><circle class="cls-52" cx="61.81" cy="21.98" r="1.38"/><circle class="cls-53" cx="61.81" cy="21.98" r="1.35"/><circle class="cls-54" cx="61.81" cy="21.98" r="1.33"/><circle class="cls-55" cx="61.81" cy="21.98" r="1.3"/><circle class="cls-56" cx="61.81" cy="21.98" r="1.27"/><circle class="cls-57" cx="61.81" cy="21.98" r="1.25"/><circle class="cls-58" cx="61.81" cy="21.98" r="1.22"/><circle class="cls-59" cx="61.81" cy="21.98" r="1.2"/><circle class="cls-60" cx="61.81" cy="21.98" r="1.17"/><circle class="cls-61" cx="61.81" cy="21.98" r="1.14"/><circle class="cls-62" cx="61.81" cy="21.98" r="1.12"/><circle class="cls-63" cx="61.81" cy="21.98" r="1.09"/><circle class="cls-64" cx="61.81" cy="21.98" r="1.07"/><circle class="cls-65" cx="61.81" cy="21.98" r="1.04"/><circle class="cls-66" cx="61.81" cy="21.98" r="1.01"/><circle class="cls-67" cx="61.81" cy="21.98" r="0.99"/><circle class="cls-68" cx="61.81" cy="21.98" r="0.96"/><circle class="cls-69" cx="61.81" cy="21.98" r="0.94"/><circle class="cls-70" cx="61.81" cy="21.98" r="0.91"/><circle class="cls-71" cx="61.81" cy="21.98" r="0.88"/><circle class="cls-72" cx="61.81" cy="21.98" r="0.86"/><circle class="cls-73" cx="61.81" cy="21.98" r="0.83"/><circle class="cls-74" cx="61.81" cy="21.98" r="0.81"/><circle class="cls-75" cx="61.81" cy="21.98" r="0.78"/><circle class="cls-76" cx="61.81" cy="21.98" r="0.75"/><circle class="cls-77" cx="61.81" cy="21.98" r="0.73"/><circle class="cls-78" cx="61.81" cy="21.98" r="0.7"/><circle class="cls-79" cx="61.81" cy="21.98" r="0.68"/><circle class="cls-80" cx="61.81" cy="21.98" r="0.65"/><circle class="cls-81" cx="61.81" cy="21.98" r="0.62"/><circle class="cls-82" cx="61.81" cy="21.98" r="0.6"/><circle class="cls-83" cx="61.81" cy="21.98" r="0.57"/><circle class="cls-84" cx="61.81" cy="21.98" r="0.55"/><circle class="cls-85" cx="61.81" cy="21.98" r="0.52"/><circle class="cls-86" cx="61.81" cy="21.98" r="0.49"/><circle class="cls-86" cx="61.81" cy="21.98" r="0.47"/><circle class="cls-87" cx="61.81" cy="21.98" r="0.44"/><circle class="cls-88" cx="61.81" cy="21.98" r="0.42"/><circle class="cls-89" cx="61.81" cy="21.98" r="0.39"/><circle class="cls-90" cx="61.81" cy="21.98" r="0.36"/><circle class="cls-91" cx="61.81" cy="21.98" r="0.34"/><circle class="cls-92" cx="61.81" cy="21.98" r="0.31"/><circle class="cls-93" cx="61.81" cy="21.98" r="0.29"/><circle class="cls-94" cx="61.81" cy="21.98" r="0.26"/><circle class="cls-95" cx="61.81" cy="21.98" r="0.23"/><circle class="cls-96" cx="61.81" cy="21.98" r="0.21"/><circle class="cls-96" cx="61.81" cy="21.98" r="0.18"/><circle class="cls-97" cx="61.81" cy="21.98" r="0.16"/><circle class="cls-98" cx="61.81" cy="21.98" r="0.13"/><circle class="cls-98" cx="61.81" cy="21.98" r="0.1"/><path class="cls-99" d="M61.89,22a.09.09,0,0,1-.09.07.08.08,0,0,1-.06-.1.07.07,0,0,1,.09-.06A.08.08,0,0,1,61.89,22Z"/><path class="cls-100" d="M61.86,22a0,0,0,0,1-.06,0s0,0,0-.06,0,0,.06,0A0,0,0,0,1,61.86,22Z"/><path class="cls-100" d="M61.84,22a0,0,0,0,1,0,0s0,0,0,0,0,0,0,0S61.84,22,61.84,22Z"/></g></svg>