<svg xmlns="http://www.w3.org/2000/svg" xmlns:xlink="http://www.w3.org/1999/xlink" viewBox="0 0 72 72"><defs><style>.cls-1{fill:none;}.cls-2{fill:#fff;}.cls-3{clip-path:url(#clip-path);}.cls-4{fill:#ffb40d;}.cls-5{fill:#ffb40e;}.cls-6{fill:#ffb50f;}.cls-7{fill:#ffb511;}.cls-8{fill:#ffb512;}.cls-9{fill:#ffb613;}.cls-10{fill:#ffb614;}.cls-11{fill:#ffb715;}.cls-12{fill:#ffb716;}.cls-13{fill:#ffb718;}.cls-14{fill:#ffb819;}.cls-15{fill:#ffb81a;}.cls-16{fill:#ffb81b;}.cls-17{fill:#ffb91c;}.cls-18{fill:#ffb91d;}.cls-19{fill:#ffba1f;}.cls-20{fill:#ffba20;}.cls-21{fill:#ffba21;}.cls-22{fill:#fb2;}.cls-23{fill:#ffbb23;}.cls-24{fill:#ffbb24;}.cls-25{fill:#ffbc25;}.cls-26{fill:#ffbc27;}.cls-27{fill:#ffbc28;}.cls-28{fill:#ffbd29;}.cls-29{fill:#ffbd2a;}.cls-30{fill:#ffbd2b;}.cls-31{fill:#ffbe2c;}.cls-32{fill:#ffbe2d;}.cls-33{fill:#ffbf2e;}.cls-34{fill:#ffbf30;}.cls-35{fill:#ffbf31;}.cls-36{fill:#ffc032;}.cls-37{fill:#ffc033;}.cls-38{fill:#ffc034;}.cls-39{fill:#ffc135;}.cls-40{fill:#ffc136;}.cls-41{fill:#ffc137;}.cls-42{fill:#ffc238;}.cls-43{fill:#ffc23a;}.cls-44{fill:#ffc23b;}.cls-45{fill:#ffc33c;}.cls-46{fill:#ffc33d;}.cls-47{fill:#ffc33e;}.cls-48{fill:#ffc43f;}.cls-49{fill:#ffc440;}.cls-50{fill:#ffc441;}.cls-51{fill:#ffc542;}.cls-52{fill:#ffc543;}.cls-53{fill:#ffc544;}.cls-54{fill:#ffc645;}.cls-55{fill:#ffc646;}.cls-56{fill:#ffc647;}.cls-57{fill:#ffc748;}.cls-58{fill:#ffc74a;}.cls-59{fill:#ffc74b;}.cls-60{fill:#ffc84c;}.cls-61{fill:#ffc84d;}.cls-62{fill:#ffc84e;}.cls-63{fill:#ffc94f;}.cls-64{fill:#ffc950;}.cls-65{fill:#ffc951;}.cls-66{fill:#ffca52;}.cls-67{fill:#ffca53;}.cls-68{fill:#ffca54;}.cls-69{fill:#ffca55;}.cls-70{fill:#ffcb56;}.cls-71{fill:#ffcb57;}.cls-72{fill:#ffcb58;}.cls-73{fill:#ffcc59;}.cls-74{fill:#ffcc5a;}.cls-75{fill:#ffcc5b;}.cls-76{fill:#ffcd5b;}.cls-77{fill:#ffcd5c;}.cls-78{fill:#ffcd5d;}.cls-79{fill:#ffce5e;}.cls-80{fill:#ffce5f;}.cls-81{fill:#ffce60;}.cls-82{fill:#ffce61;}.cls-83{fill:#ffcf62;}.cls-84{fill:#ffcf63;}.cls-85{fill:#ffcf64;}.cls-86{fill:#ffd065;}.cls-87{fill:#ffd066;}.cls-88{fill:#ffd067;}.cls-89{fill:#ffd168;}.cls-90{fill:#ffd169;}.cls-91{fill:#ffd16a;}.cls-92{fill:#ffd16b;}.cls-93{fill:#ffd26b;}.cls-94{fill:#ffd26c;}.cls-95{fill:#ffd26d;}.cls-96{fill:#ffd26e;}.cls-97{fill:#ffd36f;}.cls-98{fill:#ffd370;}.cls-99{fill:#ffd371;}.cls-100{fill:#ffd472;}.cls-101{fill:#ffd473;}</style><clipPath id="clip-path"><polygon class="cls-1" points="15.14 36.67 12.31 33.56 14.62 30.71 19.76 33.06 27.25 39.69 36.9 48.82 36.9 50.1 35.41 50.1 15.14 36.67"/></clipPath></defs><g id="ZO"><path d="M39.86,39.1l-.23.27L29.63,50c-.66.71-1.34,1.42-2,2.15a1.33,1.33,0,0,0-.23,1.71,1.72,1.72,0,0,0,1.72.78l18.82-1.33a2.85,2.85,0,0,0,.29,0V49.38L35.71,50l.18-.23,4.86-5.3,6.32-6.91a1.31,1.31,0,0,0,.24-1.6,1.59,1.59,0,0,0-1.52-.86L28.7,34.92h-.36v4.24Z"/><polygon points="18.83 55.45 24.26 55.06 4.85 21.55 3.57 24.32 3.89 28.84 18.83 55.45"/><polygon points="68 23.78 64.33 23.52 50.87 53.18 55 52.89 68 23.78"/><polygon class="cls-2" points="15.39 29.76 14.12 26.7 10.76 24.91 6.07 24.24 6.07 31.58 10.73 34.01 14.12 33.06 15.39 29.76"/><g class="cls-3"><rect class="cls-4" x="12.31" y="30.71" width="24.59" height="19.4"/><circle class="cls-4" cx="24.6" cy="40.41" r="11.07"/><circle class="cls-5" cx="24.6" cy="40.41" r="10.97"/><circle class="cls-6" cx="24.6" cy="40.41" r="10.86"/><circle class="cls-7" cx="24.6" cy="40.41" r="10.75"/><circle class="cls-8" cx="24.6" cy="40.41" r="10.64"/><circle class="cls-9" cx="24.6" cy="40.41" r="10.53"/><circle class="cls-10" cx="24.6" cy="40.41" r="10.42"/><circle class="cls-11" cx="24.6" cy="40.41" r="10.31"/><circle class="cls-12" cx="24.6" cy="40.41" r="10.21"/><circle class="cls-13" cx="24.6" cy="40.41" r="10.1"/><circle class="cls-14" cx="24.6" cy="40.41" r="9.99"/><circle class="cls-15" cx="24.6" cy="40.41" r="9.88"/><circle class="cls-16" cx="24.6" cy="40.41" r="9.77"/><circle class="cls-17" cx="24.6" cy="40.41" r="9.66"/><circle class="cls-18" cx="24.6" cy="40.41" r="9.55"/><circle class="cls-19" cx="24.6" cy="40.41" r="9.45"/><circle class="cls-20" cx="24.6" cy="40.41" r="9.34"/><circle class="cls-21" cx="24.6" cy="40.41" r="9.23"/><circle class="cls-22" cx="24.6" cy="40.41" r="9.12"/><circle class="cls-23" cx="24.6" cy="40.41" r="9.01"/><circle class="cls-24" cx="24.6" cy="40.41" r="8.9"/><circle class="cls-25" cx="24.6" cy="40.41" r="8.79"/><circle class="cls-26" cx="24.6" cy="40.41" r="8.69"/><circle class="cls-27" cx="24.6" cy="40.41" r="8.58"/><circle class="cls-28" cx="24.6" cy="40.41" r="8.47"/><circle class="cls-29" cx="24.6" cy="40.41" r="8.36"/><circle class="cls-30" cx="24.6" cy="40.41" r="8.25"/><circle class="cls-31" cx="24.6" cy="40.41" r="8.14"/><circle class="cls-32" cx="24.6" cy="40.41" r="8.03"/><circle class="cls-33" cx="24.6" cy="40.41" r="7.93"/><circle class="cls-34" cx="24.6" cy="40.41" r="7.82"/><circle class="cls-35" cx="24.6" cy="40.41" r="7.71"/><circle class="cls-36" cx="24.6" cy="40.41" r="7.6"/><circle class="cls-37" cx="24.6" cy="40.41" r="7.49"/><circle class="cls-38" cx="24.6" cy="40.41" r="7.38"/><circle class="cls-39" cx="24.6" cy="40.41" r="7.27"/><circle class="cls-40" cx="24.6" cy="40.41" r="7.17"/><circle class="cls-41" cx="24.6" cy="40.41" r="7.06"/><circle class="cls-42" cx="24.6" cy="40.41" r="6.95"/><circle class="cls-43" cx="24.6" cy="40.41" r="6.84"/><circle class="cls-44" cx="24.6" cy="40.41" r="6.73"/><circle class="cls-45" cx="24.6" cy="40.41" r="6.62"/><circle class="cls-46" cx="24.6" cy="40.41" r="6.51"/><circle class="cls-47" cx="24.6" cy="40.41" r="6.41"/><circle class="cls-48" cx="24.6" cy="40.41" r="6.3"/><circle class="cls-49" cx="24.6" cy="40.41" r="6.19"/><circle class="cls-50" cx="24.6" cy="40.41" r="6.08"/><circle class="cls-51" cx="24.6" cy="40.41" r="5.97"/><circle class="cls-52" cx="24.6" cy="40.41" r="5.86"/><circle class="cls-53" cx="24.6" cy="40.41" r="5.75"/><circle class="cls-54" cx="24.6" cy="40.41" r="5.65"/><circle class="cls-55" cx="24.6" cy="40.41" r="5.54"/><circle class="cls-56" cx="24.6" cy="40.41" r="5.43"/><circle class="cls-57" cx="24.6" cy="40.41" r="5.32"/><circle class="cls-58" cx="24.6" cy="40.41" r="5.21"/><circle class="cls-59" cx="24.6" cy="40.41" r="5.1"/><circle class="cls-60" cx="24.6" cy="40.41" r="4.99"/><circle class="cls-61" cx="24.6" cy="40.41" r="4.89"/><circle class="cls-62" cx="24.6" cy="40.41" r="4.78"/><circle class="cls-63" cx="24.6" cy="40.41" r="4.67"/><circle class="cls-64" cx="24.6" cy="40.41" r="4.56"/><circle class="cls-65" cx="24.6" cy="40.41" r="4.45"/><circle class="cls-66" cx="24.6" cy="40.41" r="4.34"/><circle class="cls-67" cx="24.6" cy="40.41" r="4.23"/><circle class="cls-68" cx="24.6" cy="40.41" r="4.13"/><circle class="cls-69" cx="24.6" cy="40.41" r="4.02"/><circle class="cls-70" cx="24.6" cy="40.41" r="3.91"/><circle class="cls-71" cx="24.6" cy="40.41" r="3.8"/><circle class="cls-72" cx="24.6" cy="40.41" r="3.69"/><circle class="cls-73" cx="24.6" cy="40.41" r="3.58"/><circle class="cls-74" cx="24.6" cy="40.41" r="3.47"/><circle class="cls-75" cx="24.6" cy="40.41" r="3.37"/><circle class="cls-76" cx="24.6" cy="40.41" r="3.26"/><circle class="cls-77" cx="24.6" cy="40.41" r="3.15"/><circle class="cls-78" cx="24.6" cy="40.41" r="3.04"/><circle class="cls-79" cx="24.6" cy="40.41" r="2.93"/><circle class="cls-80" cx="24.6" cy="40.41" r="2.82"/><circle class="cls-81" cx="24.6" cy="40.41" r="2.71"/><circle class="cls-82" cx="24.6" cy="40.41" r="2.61"/><circle class="cls-83" cx="24.6" cy="40.41" r="2.5"/><circle class="cls-84" cx="24.6" cy="40.41" r="2.39"/><circle class="cls-85" cx="24.6" cy="40.41" r="2.28"/><circle class="cls-86" cx="24.6" cy="40.41" r="2.17"/><circle class="cls-87" cx="24.6" cy="40.41" r="2.06"/><circle class="cls-87" cx="24.6" cy="40.41" r="1.95"/><circle class="cls-88" cx="24.6" cy="40.41" r="1.85"/><circle class="cls-89" cx="24.6" cy="40.41" r="1.74"/><circle class="cls-90" cx="24.6" cy="40.41" r="1.63"/><circle class="cls-91" cx="24.6" cy="40.41" r="1.52"/><circle class="cls-92" cx="24.6" cy="40.41" r="1.41"/><circle class="cls-93" cx="24.6" cy="40.41" r="1.3"/><circle class="cls-94" cx="24.6" cy="40.41" r="1.19"/><circle class="cls-95" cx="24.6" cy="40.41" r="1.09"/><circle class="cls-96" cx="24.6" cy="40.41" r="0.98"/><circle class="cls-97" cx="24.6" cy="40.41" r="0.87"/><circle class="cls-97" cx="24.6" cy="40.41" r="0.76"/><circle class="cls-98" cx="24.6" cy="40.41" r="0.65"/><circle class="cls-99" cx="24.6" cy="40.41" r="0.54"/><circle class="cls-99" cx="24.6" cy="40.41" r="0.43"/><circle class="cls-100" cx="24.6" cy="40.41" r="0.33"/><circle class="cls-101" cx="24.6" cy="40.41" r="0.22"/><circle class="cls-101" cx="24.6" cy="40.41" r="0.11"/></g><path d="M38,50.78c.85-.63.72-2.07-.36-3.16-.84-.83-5.65-5.25-9.9-9.14-3-2.74-5.57-5.1-6.28-5.78a5,5,0,0,0-1-.71l-.12-.08-.17-.07a4.33,4.33,0,0,0-.56-.22L16,30.18A5.18,5.18,0,0,0,16,28.94,6.33,6.33,0,0,0,9.35,24.1c-2.66.13-3.79-.49-4.48-2.47a.7.7,0,0,0-1.33,0,9.9,9.9,0,0,0-.14,4.71,11.49,11.49,0,0,0,1.82,4.53,8.4,8.4,0,0,0,6.42,3.72,5,5,0,0,0,1.11-.15L16,37.58a3,3,0,0,0,.36.35l0,0h0a6.19,6.19,0,0,0,.62.45C18,39,20.91,41,24,43.06c4.86,3.27,10.36,7,11.55,7.6A2.2,2.2,0,0,0,38,50.78ZM11.62,33.19A5.45,5.45,0,0,1,9,32.4a1.73,1.73,0,0,0,.6-3.2c-1-.77-.84-1.5,0-1.91a1.14,1.14,0,0,0,.25-1.77,4.86,4.86,0,0,1,4.82,3.68A3.65,3.65,0,0,1,14,32,2.72,2.72,0,0,1,11.62,33.19Zm2.5.62a4.48,4.48,0,0,0,1-1.06,5.84,5.84,0,0,0,.59-1.17l.94.37-1.79,2.59ZM18,32.48l1,.42-2.28,3.45-.86-.82ZM36.24,49.41c-1.12-.59-6.83-4.43-11.42-7.51-3.2-2.16-6-4-7-4.64l2.44-3.7a1.56,1.56,0,0,1,.2.16c.72.69,3.31,3.06,6.3,5.8,4.23,3.88,9,8.28,9.85,9.1.29.28.66.68.54.94S36.84,49.73,36.24,49.41Z"/></g></svg>