<svg id="Layer_1" data-name="Layer 1" xmlns="http://www.w3.org/2000/svg" xmlns:xlink="http://www.w3.org/1999/xlink" viewBox="0 0 72 72"><defs><style>.cls-1{fill:none;clip-rule:evenodd;}.cls-2{fill-rule:evenodd;}.cls-3{clip-path:url(#clip-path);}.cls-4{fill:#ffb40d;}.cls-5{fill:#ffb40e;}.cls-6{fill:#ffb50f;}.cls-7{fill:#ffb511;}.cls-8{fill:#ffb512;}.cls-9{fill:#ffb613;}.cls-10{fill:#ffb614;}.cls-11{fill:#ffb715;}.cls-12{fill:#ffb716;}.cls-13{fill:#ffb718;}.cls-14{fill:#ffb819;}.cls-15{fill:#ffb81a;}.cls-16{fill:#ffb81b;}.cls-17{fill:#ffb91c;}.cls-18{fill:#ffb91d;}.cls-19{fill:#ffba1f;}.cls-20{fill:#ffba20;}.cls-21{fill:#ffba21;}.cls-22{fill:#fb2;}.cls-23{fill:#ffbb23;}.cls-24{fill:#ffbb24;}.cls-25{fill:#ffbc25;}.cls-26{fill:#ffbc27;}.cls-27{fill:#ffbc28;}.cls-28{fill:#ffbd29;}.cls-29{fill:#ffbd2a;}.cls-30{fill:#ffbd2b;}.cls-31{fill:#ffbe2c;}.cls-32{fill:#ffbe2d;}.cls-33{fill:#ffbf2e;}.cls-34{fill:#ffbf30;}.cls-35{fill:#ffbf31;}.cls-36{fill:#ffc032;}.cls-37{fill:#ffc033;}.cls-38{fill:#ffc034;}.cls-39{fill:#ffc135;}.cls-40{fill:#ffc136;}.cls-41{fill:#ffc137;}.cls-42{fill:#ffc238;}.cls-43{fill:#ffc23a;}.cls-44{fill:#ffc23b;}.cls-45{fill:#ffc33c;}.cls-46{fill:#ffc33d;}.cls-47{fill:#ffc33e;}.cls-48{fill:#ffc43f;}.cls-49{fill:#ffc440;}.cls-50{fill:#ffc441;}.cls-51{fill:#ffc542;}.cls-52{fill:#ffc543;}.cls-53{fill:#ffc544;}.cls-54{fill:#ffc645;}.cls-55{fill:#ffc646;}.cls-56{fill:#ffc647;}.cls-57{fill:#ffc748;}.cls-58{fill:#ffc74a;}.cls-59{fill:#ffc74b;}.cls-60{fill:#ffc84c;}.cls-61{fill:#ffc84d;}.cls-62{fill:#ffc84e;}.cls-63{fill:#ffc94f;}.cls-64{fill:#ffc950;}.cls-65{fill:#ffc951;}.cls-66{fill:#ffca52;}.cls-67{fill:#ffca53;}.cls-68{fill:#ffca54;}.cls-69{fill:#ffca55;}.cls-70{fill:#ffcb56;}.cls-71{fill:#ffcb57;}.cls-72{fill:#ffcb58;}.cls-73{fill:#ffcc59;}.cls-74{fill:#ffcc5a;}.cls-75{fill:#ffcc5b;}.cls-76{fill:#ffcd5b;}.cls-77{fill:#ffcd5c;}.cls-78{fill:#ffcd5d;}.cls-79{fill:#ffce5e;}.cls-80{fill:#ffce5f;}.cls-81{fill:#ffce60;}.cls-82{fill:#ffce61;}.cls-83{fill:#ffcf62;}.cls-84{fill:#ffcf63;}.cls-85{fill:#ffcf64;}.cls-86{fill:#ffd065;}.cls-87{fill:#ffd066;}.cls-88{fill:#ffd067;}.cls-89{fill:#ffd168;}.cls-90{fill:#ffd169;}.cls-91{fill:#ffd16a;}.cls-92{fill:#ffd16b;}.cls-93{fill:#ffd26b;}.cls-94{fill:#ffd26c;}.cls-95{fill:#ffd26d;}.cls-96{fill:#ffd26e;}.cls-97{fill:#ffd36f;}.cls-98{fill:#ffd370;}.cls-99{fill:#ffd371;}.cls-100{fill:#ffd472;}.cls-101{fill:#ffd473;}</style><clipPath id="clip-path"><path class="cls-1" d="M22.46,38.81V24.27H10.83A5.82,5.82,0,0,0,5,30.09V47.54a5.82,5.82,0,0,0,5.82,5.81h2.91v9.74a1,1,0,0,0,1.58.84L31.19,53.35h8.72a5.81,5.81,0,0,0,5.82-5.81V44.63H28.28a5.82,5.82,0,0,1-5.82-5.82"/></clipPath></defs><path class="cls-2" d="M63.18,9.46h-32a5.82,5.82,0,0,0-5.82,5.82V35.63a5.82,5.82,0,0,0,5.82,5.82H48.64L61.53,51.76A1,1,0,0,0,63.18,51V41.45A5.81,5.81,0,0,0,69,35.63V15.28a5.81,5.81,0,0,0-5.82-5.82"/><g class="cls-3"><rect class="cls-4" x="5.01" y="24.27" width="40.72" height="40.12"/><circle class="cls-4" cx="25.37" cy="44.19" r="20.14"/><circle class="cls-5" cx="25.37" cy="44.19" r="19.94"/><circle class="cls-6" cx="25.37" cy="44.19" r="19.75"/><circle class="cls-7" cx="25.37" cy="44.19" r="19.55"/><circle class="cls-8" cx="25.37" cy="44.19" r="19.35"/><circle class="cls-9" cx="25.37" cy="44.19" r="19.15"/><circle class="cls-10" cx="25.37" cy="44.19" r="18.96"/><circle class="cls-11" cx="25.37" cy="44.19" r="18.76"/><circle class="cls-12" cx="25.37" cy="44.19" r="18.56"/><circle class="cls-13" cx="25.37" cy="44.19" r="18.36"/><circle class="cls-14" cx="25.37" cy="44.19" r="18.17"/><circle class="cls-15" cx="25.37" cy="44.19" r="17.97"/><circle class="cls-16" cx="25.37" cy="44.19" r="17.77"/><circle class="cls-17" cx="25.37" cy="44.19" r="17.57"/><circle class="cls-18" cx="25.37" cy="44.19" r="17.38"/><circle class="cls-19" cx="25.37" cy="44.19" r="17.18"/><circle class="cls-20" cx="25.37" cy="44.19" r="16.98"/><circle class="cls-21" cx="25.37" cy="44.19" r="16.78"/><circle class="cls-22" cx="25.37" cy="44.19" r="16.59"/><circle class="cls-23" cx="25.37" cy="44.19" r="16.39"/><circle class="cls-24" cx="25.37" cy="44.19" r="16.19"/><circle class="cls-25" cx="25.37" cy="44.19" r="15.99"/><circle class="cls-26" cx="25.37" cy="44.19" r="15.8"/><circle class="cls-27" cx="25.37" cy="44.19" r="15.6"/><circle class="cls-28" cx="25.37" cy="44.19" r="15.4"/><circle class="cls-29" cx="25.37" cy="44.19" r="15.2"/><circle class="cls-30" cx="25.37" cy="44.19" r="15.01"/><circle class="cls-31" cx="25.37" cy="44.19" r="14.81"/><circle class="cls-32" cx="25.37" cy="44.19" r="14.61"/><circle class="cls-33" cx="25.37" cy="44.19" r="14.41"/><circle class="cls-34" cx="25.37" cy="44.19" r="14.22"/><circle class="cls-35" cx="25.37" cy="44.19" r="14.02"/><circle class="cls-36" cx="25.37" cy="44.19" r="13.82"/><circle class="cls-37" cx="25.37" cy="44.19" r="13.62"/><circle class="cls-38" cx="25.37" cy="44.19" r="13.43"/><circle class="cls-39" cx="25.37" cy="44.19" r="13.23"/><circle class="cls-40" cx="25.37" cy="44.19" r="13.03"/><circle class="cls-41" cx="25.37" cy="44.19" r="12.83"/><circle class="cls-42" cx="25.37" cy="44.19" r="12.64"/><circle class="cls-43" cx="25.37" cy="44.19" r="12.44"/><circle class="cls-44" cx="25.37" cy="44.19" r="12.24"/><circle class="cls-45" cx="25.37" cy="44.19" r="12.04"/><circle class="cls-46" cx="25.37" cy="44.19" r="11.85"/><circle class="cls-47" cx="25.37" cy="44.19" r="11.65"/><circle class="cls-48" cx="25.37" cy="44.19" r="11.45"/><circle class="cls-49" cx="25.37" cy="44.19" r="11.26"/><circle class="cls-50" cx="25.37" cy="44.19" r="11.06"/><circle class="cls-51" cx="25.37" cy="44.19" r="10.86"/><circle class="cls-52" cx="25.37" cy="44.19" r="10.66"/><circle class="cls-53" cx="25.37" cy="44.19" r="10.47"/><circle class="cls-54" cx="25.37" cy="44.19" r="10.27"/><circle class="cls-55" cx="25.37" cy="44.19" r="10.07"/><circle class="cls-56" cx="25.37" cy="44.19" r="9.87"/><circle class="cls-57" cx="25.37" cy="44.19" r="9.68"/><circle class="cls-58" cx="25.37" cy="44.19" r="9.48"/><circle class="cls-59" cx="25.37" cy="44.19" r="9.28"/><circle class="cls-60" cx="25.37" cy="44.19" r="9.08"/><circle class="cls-61" cx="25.37" cy="44.19" r="8.89"/><circle class="cls-62" cx="25.37" cy="44.19" r="8.69"/><circle class="cls-63" cx="25.37" cy="44.19" r="8.49"/><circle class="cls-64" cx="25.37" cy="44.19" r="8.29"/><circle class="cls-65" cx="25.37" cy="44.19" r="8.1"/><circle class="cls-66" cx="25.37" cy="44.19" r="7.9"/><circle class="cls-67" cx="25.37" cy="44.19" r="7.7"/><circle class="cls-68" cx="25.37" cy="44.19" r="7.5"/><circle class="cls-69" cx="25.37" cy="44.19" r="7.31"/><circle class="cls-70" cx="25.37" cy="44.19" r="7.11"/><circle class="cls-71" cx="25.37" cy="44.19" r="6.91"/><circle class="cls-72" cx="25.37" cy="44.19" r="6.71"/><circle class="cls-73" cx="25.37" cy="44.19" r="6.52"/><circle class="cls-74" cx="25.37" cy="44.19" r="6.32"/><circle class="cls-75" cx="25.37" cy="44.19" r="6.12"/><circle class="cls-76" cx="25.37" cy="44.19" r="5.92"/><circle class="cls-77" cx="25.37" cy="44.19" r="5.73"/><circle class="cls-78" cx="25.37" cy="44.19" r="5.53"/><circle class="cls-79" cx="25.37" cy="44.19" r="5.33"/><circle class="cls-80" cx="25.37" cy="44.19" r="5.13"/><circle class="cls-81" cx="25.37" cy="44.19" r="4.94"/><circle class="cls-82" cx="25.37" cy="44.19" r="4.74"/><circle class="cls-83" cx="25.37" cy="44.19" r="4.54"/><circle class="cls-84" cx="25.37" cy="44.19" r="4.34"/><circle class="cls-85" cx="25.37" cy="44.19" r="4.15"/><circle class="cls-86" cx="25.37" cy="44.19" r="3.95"/><circle class="cls-87" cx="25.37" cy="44.19" r="3.75"/><circle class="cls-87" cx="25.37" cy="44.19" r="3.55"/><circle class="cls-88" cx="25.37" cy="44.19" r="3.36"/><circle class="cls-89" cx="25.37" cy="44.19" r="3.16"/><circle class="cls-90" cx="25.37" cy="44.19" r="2.96"/><circle class="cls-91" cx="25.37" cy="44.19" r="2.76"/><circle class="cls-92" cx="25.37" cy="44.19" r="2.57"/><circle class="cls-93" cx="25.37" cy="44.19" r="2.37"/><circle class="cls-94" cx="25.37" cy="44.19" r="2.17"/><circle class="cls-95" cx="25.37" cy="44.19" r="1.97"/><circle class="cls-96" cx="25.37" cy="44.19" r="1.78"/><circle class="cls-97" cx="25.37" cy="44.19" r="1.58"/><circle class="cls-97" cx="25.37" cy="44.19" r="1.38"/><circle class="cls-98" cx="25.37" cy="44.19" r="1.18"/><circle class="cls-99" cx="25.37" cy="44.19" r="0.99"/><circle class="cls-99" cx="25.37" cy="44.19" r="0.79"/><circle class="cls-100" cx="25.37" cy="44.19" r="0.59"/><circle class="cls-101" cx="25.37" cy="44.19" r="0.39"/><circle class="cls-101" cx="25.37" cy="44.19" r="0.2"/></g><path d="M14.75,65.14a2.05,2.05,0,0,1-2.05-2v-8.7H10.83A6.85,6.85,0,0,1,4,47.54V30.09a6.86,6.86,0,0,1,6.85-6.86H23.5V38.81a4.78,4.78,0,0,0,4.78,4.78H46.77v3.95a6.86,6.86,0,0,1-6.86,6.85H31.5L15.89,64.8A2,2,0,0,1,14.75,65.14ZM10.83,25.3a4.79,4.79,0,0,0-4.78,4.79V47.54a4.79,4.79,0,0,0,4.78,4.78h3.94V63.09L30.88,52.32h9a4.79,4.79,0,0,0,4.79-4.78V45.66H28.28a6.85,6.85,0,0,1-6.85-6.85V25.3Z"/></svg>