<svg xmlns="http://www.w3.org/2000/svg" xmlns:xlink="http://www.w3.org/1999/xlink" viewBox="0 0 72 72"><defs><style>.cls-1{fill:none;}.cls-2{clip-path:url(#clip-path);}.cls-3{fill:#ffb40d;}.cls-4{fill:#ffb40e;}.cls-5{fill:#ffb50f;}.cls-6{fill:#ffb511;}.cls-7{fill:#ffb512;}.cls-8{fill:#ffb613;}.cls-9{fill:#ffb614;}.cls-10{fill:#ffb715;}.cls-11{fill:#ffb716;}.cls-12{fill:#ffb718;}.cls-13{fill:#ffb819;}.cls-14{fill:#ffb81a;}.cls-15{fill:#ffb81b;}.cls-16{fill:#ffb91c;}.cls-17{fill:#ffb91d;}.cls-18{fill:#ffba1f;}.cls-19{fill:#ffba20;}.cls-20{fill:#ffba21;}.cls-21{fill:#fb2;}.cls-22{fill:#ffbb23;}.cls-23{fill:#ffbb24;}.cls-24{fill:#ffbc25;}.cls-25{fill:#ffbc27;}.cls-26{fill:#ffbc28;}.cls-27{fill:#ffbd29;}.cls-28{fill:#ffbd2a;}.cls-29{fill:#ffbd2b;}.cls-30{fill:#ffbe2c;}.cls-31{fill:#ffbe2d;}.cls-32{fill:#ffbf2e;}.cls-33{fill:#ffbf30;}.cls-34{fill:#ffbf31;}.cls-35{fill:#ffc032;}.cls-36{fill:#ffc033;}.cls-37{fill:#ffc034;}.cls-38{fill:#ffc135;}.cls-39{fill:#ffc136;}.cls-40{fill:#ffc137;}.cls-41{fill:#ffc238;}.cls-42{fill:#ffc23a;}.cls-43{fill:#ffc23b;}.cls-44{fill:#ffc33c;}.cls-45{fill:#ffc33d;}.cls-46{fill:#ffc33e;}.cls-47{fill:#ffc43f;}.cls-48{fill:#ffc440;}.cls-49{fill:#ffc441;}.cls-50{fill:#ffc542;}.cls-51{fill:#ffc543;}.cls-52{fill:#ffc544;}.cls-53{fill:#ffc645;}.cls-54{fill:#ffc646;}.cls-55{fill:#ffc647;}.cls-56{fill:#ffc748;}.cls-57{fill:#ffc74a;}.cls-58{fill:#ffc74b;}.cls-59{fill:#ffc84c;}.cls-60{fill:#ffc84d;}.cls-61{fill:#ffc84e;}.cls-62{fill:#ffc94f;}.cls-63{fill:#ffc950;}.cls-64{fill:#ffc951;}.cls-65{fill:#ffca52;}.cls-66{fill:#ffca53;}.cls-67{fill:#ffca54;}.cls-68{fill:#ffca55;}.cls-69{fill:#ffcb56;}.cls-70{fill:#ffcb57;}.cls-71{fill:#ffcb58;}.cls-72{fill:#ffcc59;}.cls-73{fill:#ffcc5a;}.cls-74{fill:#ffcc5b;}.cls-75{fill:#ffcd5b;}.cls-76{fill:#ffcd5c;}.cls-77{fill:#ffcd5d;}.cls-78{fill:#ffce5e;}.cls-79{fill:#ffce5f;}.cls-80{fill:#ffce60;}.cls-81{fill:#ffce61;}.cls-82{fill:#ffcf62;}.cls-83{fill:#ffcf63;}.cls-84{fill:#ffcf64;}.cls-85{fill:#ffd065;}.cls-86{fill:#ffd066;}.cls-87{fill:#ffd067;}.cls-88{fill:#ffd168;}.cls-89{fill:#ffd169;}.cls-90{fill:#ffd16a;}.cls-91{fill:#ffd16b;}.cls-92{fill:#ffd26b;}.cls-93{fill:#ffd26c;}.cls-94{fill:#ffd26d;}.cls-95{fill:#ffd26e;}.cls-96{fill:#ffd36f;}.cls-97{fill:#ffd370;}.cls-98{fill:#ffd371;}.cls-99{fill:#ffd472;}.cls-100{fill:#ffd473;}.cls-101{clip-path:url(#clip-path-2);}</style><clipPath id="clip-path"><rect class="cls-1" x="36.64" y="18.53" width="6.58" height="10.51" transform="translate(-4.26 9.37) rotate(-12.71)"/></clipPath><clipPath id="clip-path-2"><path class="cls-1" d="M60.11,55c-.34-3.81-.47-5.82-.47-5.82l2.86-.65a1.62,1.62,0,0,0,1-.71,1.66,1.66,0,0,0,.21-1.23L60.81,33.63l-4.45,1-.51-2.24,4.44-1L59.76,29a1.14,1.14,0,0,0-.13-.35,2.42,2.42,0,0,0-2.79-1.49l-2.06.47-3.12-13.8,1.61-.36a1.63,1.63,0,0,0-.72-3.18L44.89,12l2.64-4.37a2.44,2.44,0,1,0-4.17-2.54l-5.09,8.4-3.84.87.72,3.17,13.34-3,.41,1.83-5.2,1.18L46,27.79l5.2-1.17.39,1.72L36,31.87l-3.68-16.3a2.44,2.44,0,0,0-2.92-1.84l-3.53.8a2.44,2.44,0,1,0,1.07,4.76L28.07,19l3.68,16.3a2.43,2.43,0,0,0,2.91,1.84l18-4.07.5,2.25-4.39,1,2.92,12.94a1.63,1.63,0,0,0,1.95,1.23l2.8-.63s1,2.58,2.07,5.46A.81.81,0,1,0,60.11,55Z"/></clipPath></defs><g id="ZO"><g class="cls-2"><rect class="cls-3" x="35.56" y="17.93" width="8.73" height="11.7"/><circle class="cls-3" cx="39.92" cy="23.78" r="5.16"/><circle class="cls-4" cx="39.92" cy="23.78" r="5.11"/><circle class="cls-5" cx="39.92" cy="23.78" r="5.06"/><circle class="cls-6" cx="39.92" cy="23.78" r="5.01"/><circle class="cls-7" cx="39.92" cy="23.78" r="4.96"/><circle class="cls-8" cx="39.92" cy="23.78" r="4.91"/><circle class="cls-9" cx="39.92" cy="23.78" r="4.86"/><circle class="cls-10" cx="39.92" cy="23.78" r="4.81"/><circle class="cls-11" cx="39.92" cy="23.78" r="4.75"/><circle class="cls-12" cx="39.92" cy="23.78" r="4.7"/><circle class="cls-13" cx="39.92" cy="23.78" r="4.65"/><circle class="cls-14" cx="39.92" cy="23.78" r="4.6"/><circle class="cls-15" cx="39.92" cy="23.78" r="4.55"/><circle class="cls-16" cx="39.92" cy="23.78" r="4.5"/><circle class="cls-17" cx="39.92" cy="23.78" r="4.45"/><circle class="cls-18" cx="39.92" cy="23.78" r="4.4"/><circle class="cls-19" cx="39.92" cy="23.78" r="4.35"/><circle class="cls-20" cx="39.92" cy="23.78" r="4.3"/><circle class="cls-21" cx="39.92" cy="23.78" r="4.25"/><circle class="cls-22" cx="39.92" cy="23.78" r="4.2"/><circle class="cls-23" cx="39.92" cy="23.78" r="4.15"/><circle class="cls-24" cx="39.92" cy="23.78" r="4.1"/><circle class="cls-25" cx="39.92" cy="23.78" r="4.05"/><circle class="cls-26" cx="39.92" cy="23.78" r="4"/><circle class="cls-27" cx="39.92" cy="23.78" r="3.95"/><circle class="cls-28" cx="39.92" cy="23.78" r="3.89"/><circle class="cls-29" cx="39.92" cy="23.78" r="3.84"/><circle class="cls-30" cx="39.92" cy="23.78" r="3.79"/><circle class="cls-31" cx="39.92" cy="23.78" r="3.74"/><circle class="cls-32" cx="39.92" cy="23.78" r="3.69"/><circle class="cls-33" cx="39.92" cy="23.78" r="3.64"/><circle class="cls-34" cx="39.92" cy="23.78" r="3.59"/><circle class="cls-35" cx="39.92" cy="23.78" r="3.54"/><circle class="cls-36" cx="39.92" cy="23.78" r="3.49"/><circle class="cls-37" cx="39.92" cy="23.78" r="3.44"/><circle class="cls-38" cx="39.92" cy="23.78" r="3.39"/><circle class="cls-39" cx="39.92" cy="23.78" r="3.34"/><circle class="cls-40" cx="39.92" cy="23.78" r="3.29"/><circle class="cls-41" cx="39.92" cy="23.78" r="3.24"/><circle class="cls-42" cx="39.92" cy="23.78" r="3.19"/><circle class="cls-43" cx="39.92" cy="23.78" r="3.14"/><circle class="cls-44" cx="39.92" cy="23.78" r="3.09"/><circle class="cls-45" cx="39.92" cy="23.78" r="3.04"/><circle class="cls-46" cx="39.92" cy="23.78" r="2.98"/><circle class="cls-47" cx="39.92" cy="23.78" r="2.93"/><circle class="cls-48" cx="39.92" cy="23.78" r="2.88"/><circle class="cls-49" cx="39.92" cy="23.78" r="2.83"/><circle class="cls-50" cx="39.92" cy="23.78" r="2.78"/><circle class="cls-51" cx="39.92" cy="23.78" r="2.73"/><circle class="cls-52" cx="39.92" cy="23.78" r="2.68"/><circle class="cls-53" cx="39.92" cy="23.78" r="2.63"/><circle class="cls-54" cx="39.92" cy="23.78" r="2.58"/><circle class="cls-55" cx="39.92" cy="23.78" r="2.53"/><circle class="cls-56" cx="39.92" cy="23.78" r="2.48"/><circle class="cls-57" cx="39.92" cy="23.78" r="2.43"/><circle class="cls-58" cx="39.92" cy="23.78" r="2.38"/><circle class="cls-59" cx="39.92" cy="23.78" r="2.33"/><circle class="cls-60" cx="39.92" cy="23.78" r="2.28"/><circle class="cls-61" cx="39.92" cy="23.78" r="2.23"/><circle class="cls-62" cx="39.92" cy="23.78" r="2.18"/><circle class="cls-63" cx="39.92" cy="23.78" r="2.12"/><circle class="cls-64" cx="39.92" cy="23.78" r="2.07"/><circle class="cls-65" cx="39.92" cy="23.78" r="2.02"/><circle class="cls-66" cx="39.92" cy="23.78" r="1.97"/><circle class="cls-67" cx="39.92" cy="23.78" r="1.92"/><circle class="cls-68" cx="39.92" cy="23.78" r="1.87"/><circle class="cls-69" cx="39.92" cy="23.78" r="1.82"/><circle class="cls-70" cx="39.92" cy="23.78" r="1.77"/><circle class="cls-71" cx="39.92" cy="23.78" r="1.72"/><circle class="cls-72" cx="39.92" cy="23.78" r="1.67"/><circle class="cls-73" cx="39.92" cy="23.78" r="1.62"/><circle class="cls-74" cx="39.92" cy="23.78" r="1.57"/><circle class="cls-75" cx="39.92" cy="23.78" r="1.52"/><circle class="cls-76" cx="39.92" cy="23.78" r="1.47"/><circle class="cls-77" cx="39.92" cy="23.78" r="1.42"/><circle class="cls-78" cx="39.92" cy="23.78" r="1.37"/><circle class="cls-79" cx="39.92" cy="23.78" r="1.32"/><circle class="cls-80" cx="39.92" cy="23.78" r="1.26"/><circle class="cls-81" cx="39.92" cy="23.78" r="1.21"/><circle class="cls-82" cx="39.92" cy="23.78" r="1.16"/><circle class="cls-83" cx="39.92" cy="23.78" r="1.11"/><circle class="cls-84" cx="39.92" cy="23.78" r="1.06"/><circle class="cls-85" cx="39.92" cy="23.78" r="1.01"/><circle class="cls-86" cx="39.92" cy="23.78" r="0.96"/><circle class="cls-86" cx="39.92" cy="23.78" r="0.91"/><circle class="cls-87" cx="39.92" cy="23.78" r="0.86"/><circle class="cls-88" cx="39.92" cy="23.78" r="0.81"/><circle class="cls-89" cx="39.92" cy="23.78" r="0.76"/><circle class="cls-90" cx="39.92" cy="23.78" r="0.71"/><circle class="cls-91" cx="39.92" cy="23.78" r="0.66"/><circle class="cls-92" cx="39.92" cy="23.78" r="0.61"/><circle class="cls-93" cx="39.92" cy="23.78" r="0.56"/><circle class="cls-94" cx="39.92" cy="23.78" r="0.51"/><circle class="cls-95" cx="39.92" cy="23.78" r="0.46"/><circle class="cls-96" cx="39.92" cy="23.78" r="0.4"/><circle class="cls-96" cx="39.92" cy="23.78" r="0.35"/><circle class="cls-97" cx="39.92" cy="23.78" r="0.3"/><circle class="cls-98" cx="39.92" cy="23.78" r="0.25"/><circle class="cls-98" cx="39.92" cy="23.78" r="0.2"/><circle class="cls-99" cx="39.92" cy="23.78" r="0.15"/><circle class="cls-100" cx="39.92" cy="23.78" r="0.1"/><circle class="cls-100" cx="39.92" cy="23.78" r="0.05"/></g><path d="M37.16,30.75,34.44,18.67l8.25-1.86,2.72,12.08Zm-.48-10.66,1.9,8.42,4.59-1-1.9-8.42Z"/><g class="cls-101"><rect class="cls-3" x="23.7" y="3.6" width="40.13" height="52.46"/><circle class="cls-3" cx="43.85" cy="29.96" r="23.17"/><circle class="cls-4" cx="43.85" cy="29.96" r="22.94"/><circle class="cls-5" cx="43.85" cy="29.96" r="22.71"/><circle class="cls-6" cx="43.85" cy="29.96" r="22.49"/><circle class="cls-7" cx="43.85" cy="29.96" r="22.26"/><circle class="cls-8" cx="43.85" cy="29.96" r="22.03"/><circle class="cls-9" cx="43.85" cy="29.96" r="21.81"/><circle class="cls-10" cx="43.85" cy="29.96" r="21.58"/><circle class="cls-11" cx="43.85" cy="29.96" r="21.35"/><circle class="cls-12" cx="43.85" cy="29.96" r="21.12"/><circle class="cls-13" cx="43.85" cy="29.96" r="20.9"/><circle class="cls-14" cx="43.85" cy="29.96" r="20.67"/><circle class="cls-15" cx="43.85" cy="29.96" r="20.44"/><circle class="cls-16" cx="43.85" cy="29.96" r="20.22"/><circle class="cls-17" cx="43.85" cy="29.96" r="19.99"/><circle class="cls-18" cx="43.85" cy="29.96" r="19.76"/><circle class="cls-19" cx="43.85" cy="29.96" r="19.53"/><circle class="cls-20" cx="43.85" cy="29.96" r="19.31"/><circle class="cls-21" cx="43.85" cy="29.96" r="19.08"/><circle class="cls-22" cx="43.85" cy="29.96" r="18.85"/><circle class="cls-23" cx="43.85" cy="29.96" r="18.63"/><circle class="cls-24" cx="43.85" cy="29.96" r="18.4"/><circle class="cls-25" cx="43.85" cy="29.96" r="18.17"/><circle class="cls-26" cx="43.85" cy="29.96" r="17.94"/><circle class="cls-27" cx="43.85" cy="29.96" r="17.72"/><circle class="cls-28" cx="43.85" cy="29.96" r="17.49"/><circle class="cls-29" cx="43.85" cy="29.96" r="17.26"/><circle class="cls-30" cx="43.85" cy="29.96" r="17.04"/><circle class="cls-31" cx="43.85" cy="29.96" r="16.81"/><circle class="cls-32" cx="43.85" cy="29.96" r="16.58"/><circle class="cls-33" cx="43.85" cy="29.96" r="16.35"/><circle class="cls-34" cx="43.85" cy="29.96" r="16.13"/><circle class="cls-35" cx="43.85" cy="29.96" r="15.9"/><circle class="cls-36" cx="43.85" cy="29.96" r="15.67"/><circle class="cls-37" cx="43.85" cy="29.96" r="15.45"/><circle class="cls-38" cx="43.85" cy="29.96" r="15.22"/><circle class="cls-39" cx="43.85" cy="29.96" r="14.99"/><circle class="cls-40" cx="43.85" cy="29.96" r="14.76"/><circle class="cls-41" cx="43.85" cy="29.96" r="14.54"/><circle class="cls-42" cx="43.85" cy="29.96" r="14.31"/><circle class="cls-43" cx="43.85" cy="29.96" r="14.08"/><circle class="cls-44" cx="43.85" cy="29.96" r="13.86"/><circle class="cls-45" cx="43.85" cy="29.96" r="13.63"/><circle class="cls-46" cx="43.85" cy="29.96" r="13.4"/><circle class="cls-47" cx="43.85" cy="29.96" r="13.17"/><circle class="cls-48" cx="43.85" cy="29.96" r="12.95"/><circle class="cls-49" cx="43.85" cy="29.96" r="12.72"/><circle class="cls-50" cx="43.85" cy="29.96" r="12.49"/><circle class="cls-51" cx="43.85" cy="29.96" r="12.27"/><circle class="cls-52" cx="43.85" cy="29.96" r="12.04"/><circle class="cls-53" cx="43.85" cy="29.96" r="11.81"/><circle class="cls-54" cx="43.85" cy="29.96" r="11.58"/><circle class="cls-55" cx="43.85" cy="29.96" r="11.36"/><circle class="cls-56" cx="43.85" cy="29.96" r="11.13"/><circle class="cls-57" cx="43.85" cy="29.96" r="10.9"/><circle class="cls-58" cx="43.85" cy="29.96" r="10.68"/><circle class="cls-59" cx="43.85" cy="29.96" r="10.45"/><circle class="cls-60" cx="43.85" cy="29.96" r="10.22"/><circle class="cls-61" cx="43.85" cy="29.96" r="9.99"/><circle class="cls-62" cx="43.85" cy="29.96" r="9.77"/><circle class="cls-63" cx="43.85" cy="29.96" r="9.54"/><circle class="cls-64" cx="43.85" cy="29.96" r="9.31"/><circle class="cls-65" cx="43.85" cy="29.96" r="9.09"/><circle class="cls-66" cx="43.85" cy="29.96" r="8.86"/><circle class="cls-67" cx="43.85" cy="29.96" r="8.63"/><circle class="cls-68" cx="43.85" cy="29.96" r="8.4"/><circle class="cls-69" cx="43.85" cy="29.96" r="8.18"/><circle class="cls-70" cx="43.85" cy="29.96" r="7.95"/><circle class="cls-71" cx="43.85" cy="29.96" r="7.72"/><circle class="cls-72" cx="43.85" cy="29.96" r="7.5"/><circle class="cls-73" cx="43.85" cy="29.96" r="7.27"/><circle class="cls-74" cx="43.85" cy="29.96" r="7.04"/><circle class="cls-75" cx="43.85" cy="29.96" r="6.81"/><circle class="cls-76" cx="43.85" cy="29.96" r="6.59"/><circle class="cls-77" cx="43.85" cy="29.96" r="6.36"/><circle class="cls-78" cx="43.85" cy="29.96" r="6.13"/><circle class="cls-79" cx="43.85" cy="29.96" r="5.91"/><circle class="cls-80" cx="43.85" cy="29.96" r="5.68"/><circle class="cls-81" cx="43.85" cy="29.96" r="5.45"/><circle class="cls-82" cx="43.85" cy="29.96" r="5.22"/><circle class="cls-83" cx="43.85" cy="29.96" r="5"/><circle class="cls-84" cx="43.85" cy="29.96" r="4.77"/><circle class="cls-85" cx="43.85" cy="29.96" r="4.54"/><circle class="cls-86" cx="43.85" cy="29.96" r="4.32"/><circle class="cls-86" cx="43.85" cy="29.96" r="4.09"/><circle class="cls-87" cx="43.85" cy="29.96" r="3.86"/><circle class="cls-88" cx="43.85" cy="29.96" r="3.63"/><circle class="cls-89" cx="43.85" cy="29.96" r="3.41"/><circle class="cls-90" cx="43.85" cy="29.96" r="3.18"/><circle class="cls-91" cx="43.85" cy="29.96" r="2.95"/><circle class="cls-92" cx="43.85" cy="29.96" r="2.73"/><circle class="cls-93" cx="43.85" cy="29.96" r="2.5"/><circle class="cls-94" cx="43.85" cy="29.96" r="2.27"/><circle class="cls-95" cx="43.85" cy="29.96" r="2.04"/><circle class="cls-96" cx="43.85" cy="29.96" r="1.82"/><circle class="cls-96" cx="43.85" cy="29.96" r="1.59"/><circle class="cls-97" cx="43.85" cy="29.96" r="1.36"/><circle class="cls-98" cx="43.85" cy="29.96" r="1.14"/><circle class="cls-98" cx="43.85" cy="29.96" r="0.91"/><circle class="cls-99" cx="43.85" cy="29.96" r="0.68"/><circle class="cls-100" cx="43.85" cy="29.96" r="0.45"/><circle class="cls-100" cx="43.85" cy="29.96" r="0.23"/></g><path d="M59.33,56.91a1.83,1.83,0,0,1-1.69-1.25C57,53.74,56.26,51.94,55.88,51l-2,.45a2.54,2.54,0,0,1-1.94-.33,2.51,2.51,0,0,1-1.13-1.6L47.67,35.63l4.39-1L52,34.23l-17.1,3.86a3.38,3.38,0,0,1-4-2.56L27.36,20.15l-.24.06a3.38,3.38,0,0,1-1.49-6.6l3.54-.8a3.38,3.38,0,0,1,4,2.56l3.47,15.38,8.6-1.94-2.7-12-8.14,1.84-1.13-5,4.37-1,4.88-8.06A3.27,3.27,0,0,1,44.64,3.1a3.33,3.33,0,0,1,2.56.39,3.38,3.38,0,0,1,1.13,4.65l-1.5,2.48,5.51-1.24a2.56,2.56,0,0,1,3.07,1.94,2.55,2.55,0,0,1-1.94,3.06l-.69.16,2.71,12,1.14-.26a3.37,3.37,0,0,1,3.88,2.05,2.32,2.32,0,0,1,.17.49l.73,3.26-4.44,1,.1.42,4.45-1,3.12,13.86a2.54,2.54,0,0,1-.33,1.94,2.51,2.51,0,0,1-1.6,1.13l-2.08.47c.07.91.2,2.6.42,5a1.8,1.8,0,0,1-1.34,2A1.64,1.64,0,0,1,59.33,56.91ZM57,48.78l.29.75s.85,2.14,1.77,4.64c-.29-3.2-.4-4.93-.4-5l-.05-.8,3.64-.82a.65.65,0,0,0,.43-.31.68.68,0,0,0,.09-.52l-2.71-12-4.45,1-.92-4.06,4.44-1-.32-1.44a.53.53,0,0,0-.06-.14,1.52,1.52,0,0,0-1.75-1l-3,.67L50.54,13.12l2.52-.57a.7.7,0,0,0,.43-.3.68.68,0,0,0,.09-.52.67.67,0,0,0-.3-.43.65.65,0,0,0-.52-.09L43,13.42l3.78-6.26a1.5,1.5,0,0,0-.51-2.06,1.49,1.49,0,0,0-1.13-.18,1.53,1.53,0,0,0-.93.68l-5.29,8.74-3.32.75.31,1.34,13.34-3L50,17.08l-5.2,1.17,1.9,8.42,5.2-1.17.8,3.55L35.26,33,31.38,15.78a1.52,1.52,0,0,0-1.8-1.14l-3.54.8a1.51,1.51,0,0,0-1.13,1.8,1.5,1.5,0,0,0,1.8,1.13l2.07-.46,3.88,17.21a1.55,1.55,0,0,0,.66.94,1.52,1.52,0,0,0,1.14.19L53.38,32l.93,4.08-4.4,1,2.72,12a.67.67,0,0,0,.3.43.69.69,0,0,0,.52.09Z"/><path d="M28.93,48.88l-.32.1L16.69,52.07l-2.1.55a1.15,1.15,0,0,0-.89,1,1.26,1.26,0,0,0,.6,1.25l12.84,8.76.24.15,2.23-2.89-9.24-6.08.23-.08,6-1.43,9-2.14A1.39,1.39,0,0,0,36.84,50,1.36,1.36,0,0,0,36,48.57L23.29,41.3l-.23-.13-2.06,3Z"/><polygon points="8.71 51.12 11.54 53.05 16.36 24 13.34 22.52 8.71 51.12"/><polygon points="59.9 55.63 54.68 53.05 29.5 65.32 33.11 67.78 59.9 55.63"/></g></svg>