<svg id="Layer_1" data-name="Layer 1" xmlns="http://www.w3.org/2000/svg" xmlns:xlink="http://www.w3.org/1999/xlink" viewBox="0 0 72 72"><defs><style>.cls-1{fill:none;}.cls-2{clip-path:url(#clip-path);}.cls-3{fill:#ffb40d;}.cls-4{fill:#ffb40e;}.cls-5{fill:#ffb50f;}.cls-6{fill:#ffb511;}.cls-7{fill:#ffb512;}.cls-8{fill:#ffb613;}.cls-9{fill:#ffb614;}.cls-10{fill:#ffb715;}.cls-11{fill:#ffb716;}.cls-12{fill:#ffb718;}.cls-13{fill:#ffb819;}.cls-14{fill:#ffb81a;}.cls-15{fill:#ffb81b;}.cls-16{fill:#ffb91c;}.cls-17{fill:#ffb91d;}.cls-18{fill:#ffba1f;}.cls-19{fill:#ffba20;}.cls-20{fill:#ffba21;}.cls-21{fill:#fb2;}.cls-22{fill:#ffbb23;}.cls-23{fill:#ffbb24;}.cls-24{fill:#ffbc25;}.cls-25{fill:#ffbc27;}.cls-26{fill:#ffbc28;}.cls-27{fill:#ffbd29;}.cls-28{fill:#ffbd2a;}.cls-29{fill:#ffbd2b;}.cls-30{fill:#ffbe2c;}.cls-31{fill:#ffbe2d;}.cls-32{fill:#ffbf2e;}.cls-33{fill:#ffbf30;}.cls-34{fill:#ffbf31;}.cls-35{fill:#ffc032;}.cls-36{fill:#ffc033;}.cls-37{fill:#ffc034;}.cls-38{fill:#ffc135;}.cls-39{fill:#ffc136;}.cls-40{fill:#ffc137;}.cls-41{fill:#ffc238;}.cls-42{fill:#ffc23a;}.cls-43{fill:#ffc23b;}.cls-44{fill:#ffc33c;}.cls-45{fill:#ffc33d;}.cls-46{fill:#ffc33e;}.cls-47{fill:#ffc43f;}.cls-48{fill:#ffc440;}.cls-49{fill:#ffc441;}.cls-50{fill:#ffc542;}.cls-51{fill:#ffc543;}.cls-52{fill:#ffc544;}.cls-53{fill:#ffc645;}.cls-54{fill:#ffc646;}.cls-55{fill:#ffc647;}.cls-56{fill:#ffc748;}.cls-57{fill:#ffc74a;}.cls-58{fill:#ffc74b;}.cls-59{fill:#ffc84c;}.cls-60{fill:#ffc84d;}.cls-61{fill:#ffc84e;}.cls-62{fill:#ffc94f;}.cls-63{fill:#ffc950;}.cls-64{fill:#ffc951;}.cls-65{fill:#ffca52;}.cls-66{fill:#ffca53;}.cls-67{fill:#ffca54;}.cls-68{fill:#ffca55;}.cls-69{fill:#ffcb56;}.cls-70{fill:#ffcb57;}.cls-71{fill:#ffcb58;}.cls-72{fill:#ffcc59;}.cls-73{fill:#ffcc5a;}.cls-74{fill:#ffcc5b;}.cls-75{fill:#ffcd5b;}.cls-76{fill:#ffcd5c;}.cls-77{fill:#ffcd5d;}.cls-78{fill:#ffce5e;}.cls-79{fill:#ffce5f;}.cls-80{fill:#ffce60;}.cls-81{fill:#ffce61;}.cls-82{fill:#ffcf62;}.cls-83{fill:#ffcf63;}.cls-84{fill:#ffcf64;}.cls-85{fill:#ffd065;}.cls-86{fill:#ffd066;}.cls-87{fill:#ffd067;}.cls-88{fill:#ffd168;}.cls-89{fill:#ffd169;}.cls-90{fill:#ffd16a;}.cls-91{fill:#ffd16b;}.cls-92{fill:#ffd26b;}.cls-93{fill:#ffd26c;}.cls-94{fill:#ffd26d;}.cls-95{fill:#ffd26e;}.cls-96{fill:#ffd36f;}.cls-97{fill:#ffd370;}.cls-98{fill:#ffd371;}.cls-99{fill:#ffd472;}.cls-100{fill:#ffd473;}</style><clipPath id="clip-path"><polygon class="cls-1" points="46.83 42.91 26.15 42.91 26.15 56.35 5.48 56.35 5.48 66.12 67.5 66.12 67.5 32.58 46.83 32.58 46.83 42.91"/></clipPath></defs><g class="cls-2"><rect class="cls-3" x="5.48" y="32.58" width="62.02" height="33.54"/><path class="cls-3" d="M61.42,49.35a24.93,24.93,0,0,1-15.23,23v-5.2H26.79v5.2a24.94,24.94,0,0,1,0-45.94v5.2h19.4v-5.2a24.93,24.93,0,0,1,15.23,23Z"/><circle class="cls-4" cx="36.49" cy="49.35" r="24.69"/><circle class="cls-5" cx="36.49" cy="49.35" r="24.44"/><circle class="cls-6" cx="36.49" cy="49.35" r="24.2"/><circle class="cls-7" cx="36.49" cy="49.35" r="23.95"/><circle class="cls-8" cx="36.49" cy="49.35" r="23.71"/><circle class="cls-9" cx="36.49" cy="49.35" r="23.46"/><circle class="cls-10" cx="36.49" cy="49.35" r="23.22"/><circle class="cls-11" cx="36.49" cy="49.35" r="22.97"/><circle class="cls-12" cx="36.49" cy="49.35" r="22.73"/><circle class="cls-13" cx="36.49" cy="49.35" r="22.49"/><circle class="cls-14" cx="36.49" cy="49.35" r="22.24"/><circle class="cls-15" cx="36.49" cy="49.35" r="22"/><circle class="cls-16" cx="36.49" cy="49.35" r="21.75"/><circle class="cls-17" cx="36.49" cy="49.35" r="21.51"/><circle class="cls-18" cx="36.49" cy="49.35" r="21.26"/><circle class="cls-19" cx="36.49" cy="49.35" r="21.02"/><circle class="cls-20" cx="36.49" cy="49.35" r="20.77"/><circle class="cls-21" cx="36.49" cy="49.35" r="20.53"/><circle class="cls-22" cx="36.49" cy="49.35" r="20.29"/><circle class="cls-23" cx="36.49" cy="49.35" r="20.04"/><circle class="cls-24" cx="36.49" cy="49.35" r="19.8"/><circle class="cls-25" cx="36.49" cy="49.35" r="19.55"/><circle class="cls-26" cx="36.49" cy="49.35" r="19.31"/><circle class="cls-27" cx="36.49" cy="49.35" r="19.06"/><circle class="cls-28" cx="36.49" cy="49.35" r="18.82"/><circle class="cls-29" cx="36.49" cy="49.35" r="18.58"/><circle class="cls-30" cx="36.49" cy="49.35" r="18.33"/><circle class="cls-31" cx="36.49" cy="49.35" r="18.09"/><circle class="cls-32" cx="36.49" cy="49.35" r="17.84"/><circle class="cls-33" cx="36.49" cy="49.35" r="17.6"/><circle class="cls-34" cx="36.49" cy="49.35" r="17.35"/><circle class="cls-35" cx="36.49" cy="49.35" r="17.11"/><circle class="cls-36" cx="36.49" cy="49.35" r="16.86"/><circle class="cls-37" cx="36.49" cy="49.35" r="16.62"/><circle class="cls-38" cx="36.49" cy="49.35" r="16.38"/><circle class="cls-39" cx="36.49" cy="49.35" r="16.13"/><circle class="cls-40" cx="36.49" cy="49.35" r="15.89"/><circle class="cls-41" cx="36.49" cy="49.35" r="15.64"/><circle class="cls-42" cx="36.49" cy="49.35" r="15.4"/><circle class="cls-43" cx="36.49" cy="49.35" r="15.15"/><circle class="cls-44" cx="36.49" cy="49.35" r="14.91"/><circle class="cls-45" cx="36.49" cy="49.35" r="14.66"/><circle class="cls-46" cx="36.49" cy="49.35" r="14.42"/><circle class="cls-47" cx="36.49" cy="49.35" r="14.18"/><circle class="cls-48" cx="36.49" cy="49.35" r="13.93"/><circle class="cls-49" cx="36.49" cy="49.35" r="13.69"/><circle class="cls-50" cx="36.49" cy="49.35" r="13.44"/><circle class="cls-51" cx="36.49" cy="49.35" r="13.2"/><circle class="cls-52" cx="36.49" cy="49.35" r="12.95"/><circle class="cls-53" cx="36.49" cy="49.35" r="12.71"/><circle class="cls-54" cx="36.49" cy="49.35" r="12.46"/><circle class="cls-55" cx="36.49" cy="49.35" r="12.22"/><circle class="cls-56" cx="36.49" cy="49.35" r="11.98"/><circle class="cls-57" cx="36.49" cy="49.35" r="11.73"/><circle class="cls-58" cx="36.49" cy="49.35" r="11.49"/><circle class="cls-59" cx="36.49" cy="49.35" r="11.24"/><circle class="cls-60" cx="36.49" cy="49.35" r="11"/><circle class="cls-61" cx="36.49" cy="49.35" r="10.75"/><circle class="cls-62" cx="36.49" cy="49.35" r="10.51"/><circle class="cls-63" cx="36.49" cy="49.35" r="10.27"/><circle class="cls-64" cx="36.49" cy="49.35" r="10.02"/><circle class="cls-65" cx="36.49" cy="49.35" r="9.78"/><circle class="cls-66" cx="36.49" cy="49.35" r="9.53"/><circle class="cls-67" cx="36.49" cy="49.35" r="9.29"/><circle class="cls-68" cx="36.49" cy="49.35" r="9.04"/><circle class="cls-69" cx="36.49" cy="49.35" r="8.8"/><circle class="cls-70" cx="36.49" cy="49.35" r="8.55"/><circle class="cls-71" cx="36.49" cy="49.35" r="8.31"/><circle class="cls-72" cx="36.49" cy="49.35" r="8.07"/><circle class="cls-73" cx="36.49" cy="49.35" r="7.82"/><circle class="cls-74" cx="36.49" cy="49.35" r="7.58"/><circle class="cls-75" cx="36.49" cy="49.35" r="7.33"/><circle class="cls-76" cx="36.49" cy="49.35" r="7.09"/><circle class="cls-77" cx="36.49" cy="49.35" r="6.84"/><circle class="cls-78" cx="36.49" cy="49.35" r="6.6"/><circle class="cls-79" cx="36.49" cy="49.35" r="6.35"/><circle class="cls-80" cx="36.49" cy="49.35" r="6.11"/><circle class="cls-81" cx="36.49" cy="49.35" r="5.87"/><circle class="cls-82" cx="36.49" cy="49.35" r="5.62"/><circle class="cls-83" cx="36.49" cy="49.35" r="5.38"/><circle class="cls-84" cx="36.49" cy="49.35" r="5.13"/><circle class="cls-85" cx="36.49" cy="49.35" r="4.89"/><circle class="cls-86" cx="36.49" cy="49.35" r="4.64"/><circle class="cls-86" cx="36.49" cy="49.35" r="4.4"/><circle class="cls-87" cx="36.49" cy="49.35" r="4.15"/><circle class="cls-88" cx="36.49" cy="49.35" r="3.91"/><circle class="cls-89" cx="36.49" cy="49.35" r="3.67"/><circle class="cls-90" cx="36.49" cy="49.35" r="3.42"/><circle class="cls-91" cx="36.49" cy="49.35" r="3.18"/><circle class="cls-92" cx="36.49" cy="49.35" r="2.93"/><circle class="cls-93" cx="36.49" cy="49.35" r="2.69"/><circle class="cls-94" cx="36.49" cy="49.35" r="2.44"/><circle class="cls-95" cx="36.49" cy="49.35" r="2.2"/><circle class="cls-96" cx="36.49" cy="49.35" r="1.96"/><circle class="cls-96" cx="36.49" cy="49.35" r="1.71"/><circle class="cls-97" cx="36.49" cy="49.35" r="1.47"/><circle class="cls-98" cx="36.49" cy="49.35" r="1.22"/><circle class="cls-98" cx="36.49" cy="49.35" r="0.98"/><circle class="cls-99" cx="36.49" cy="49.35" r="0.73"/><circle class="cls-100" cx="36.49" cy="49.35" r="0.49"/><circle class="cls-100" cx="36.49" cy="49.35" r="0.24"/></g><path d="M69,67.62H4V54.85H24.65V41.41H45.32V31.08H69Zm-62-3H66V34.08H48.33V44.41H27.65V57.85H7Z"/><rect x="18.98" y="40.62" width="5" height="2" transform="translate(-20.68 21.21) rotate(-36.87)"/><rect x="11.21" y="34.45" width="13.23" height="2" transform="translate(-16.67 15.84) rotate(-33.69)"/><rect x="11.58" y="27.17" width="8.47" height="2" transform="translate(-13.12 13.8) rotate(-34.28)"/><circle cx="38.97" cy="8.3" r="4"/><path d="M26.18,24.22l10.59-6.35L35.71,29.52l-8.48,6.35v4.24l24.36-18-1.06,6.35,3.18,1.06,1.06-7.39a3.18,3.18,0,0,0-5-3l-5.57,4.05,1.06-9.53,9.53-5.29V4.1L26.18,20Z"/></svg>