<svg xmlns="http://www.w3.org/2000/svg" xmlns:xlink="http://www.w3.org/1999/xlink" viewBox="0 0 72 72"><defs><style>.cls-1{fill:none;}.cls-2{clip-path:url(#clip-path);}.cls-3{fill:#ffb40d;}.cls-4{fill:#ffb40e;}.cls-5{fill:#ffb50f;}.cls-6{fill:#ffb511;}.cls-7{fill:#ffb512;}.cls-8{fill:#ffb613;}.cls-9{fill:#ffb614;}.cls-10{fill:#ffb715;}.cls-11{fill:#ffb716;}.cls-12{fill:#ffb718;}.cls-13{fill:#ffb819;}.cls-14{fill:#ffb81a;}.cls-15{fill:#ffb81b;}.cls-16{fill:#ffb91c;}.cls-17{fill:#ffb91d;}.cls-18{fill:#ffba1f;}.cls-19{fill:#ffba20;}.cls-20{fill:#ffba21;}.cls-21{fill:#fb2;}.cls-22{fill:#ffbb23;}.cls-23{fill:#ffbb24;}.cls-24{fill:#ffbc25;}.cls-25{fill:#ffbc27;}.cls-26{fill:#ffbc28;}.cls-27{fill:#ffbd29;}.cls-28{fill:#ffbd2a;}.cls-29{fill:#ffbd2b;}.cls-30{fill:#ffbe2c;}.cls-31{fill:#ffbe2d;}.cls-32{fill:#ffbf2e;}.cls-33{fill:#ffbf30;}.cls-34{fill:#ffbf31;}.cls-35{fill:#ffc032;}.cls-36{fill:#ffc033;}.cls-37{fill:#ffc034;}.cls-38{fill:#ffc135;}.cls-39{fill:#ffc136;}.cls-40{fill:#ffc137;}.cls-41{fill:#ffc238;}.cls-42{fill:#ffc23a;}.cls-43{fill:#ffc23b;}.cls-44{fill:#ffc33c;}.cls-45{fill:#ffc33d;}.cls-46{fill:#ffc33e;}.cls-47{fill:#ffc43f;}.cls-48{fill:#ffc440;}.cls-49{fill:#ffc441;}.cls-50{fill:#ffc542;}.cls-51{fill:#ffc543;}.cls-52{fill:#ffc544;}.cls-53{fill:#ffc645;}.cls-54{fill:#ffc646;}.cls-55{fill:#ffc647;}.cls-56{fill:#ffc748;}.cls-57{fill:#ffc74a;}.cls-58{fill:#ffc74b;}.cls-59{fill:#ffc84c;}.cls-60{fill:#ffc84d;}.cls-61{fill:#ffc84e;}.cls-62{fill:#ffc94f;}.cls-63{fill:#ffc950;}.cls-64{fill:#ffc951;}.cls-65{fill:#ffca52;}.cls-66{fill:#ffca53;}.cls-67{fill:#ffca54;}.cls-68{fill:#ffca55;}.cls-69{fill:#ffcb56;}.cls-70{fill:#ffcb57;}.cls-71{fill:#ffcb58;}.cls-72{fill:#ffcc59;}.cls-73{fill:#ffcc5a;}.cls-74{fill:#ffcc5b;}.cls-75{fill:#ffcd5b;}.cls-76{fill:#ffcd5c;}.cls-77{fill:#ffcd5d;}.cls-78{fill:#ffce5e;}.cls-79{fill:#ffce5f;}.cls-80{fill:#ffce60;}.cls-81{fill:#ffce61;}.cls-82{fill:#ffcf62;}.cls-83{fill:#ffcf63;}.cls-84{fill:#ffcf64;}.cls-85{fill:#ffd065;}.cls-86{fill:#ffd066;}.cls-87{fill:#ffd067;}.cls-88{fill:#ffd168;}.cls-89{fill:#ffd169;}.cls-90{fill:#ffd16a;}.cls-91{fill:#ffd16b;}.cls-92{fill:#ffd26b;}.cls-93{fill:#ffd26c;}.cls-94{fill:#ffd26d;}.cls-95{fill:#ffd26e;}.cls-96{fill:#ffd36f;}.cls-97{fill:#ffd370;}.cls-98{fill:#ffd371;}.cls-99{fill:#ffd472;}.cls-100{fill:#ffd473;}.cls-101{clip-path:url(#clip-path-2);}.cls-102{clip-path:url(#clip-path-3);}</style><clipPath id="clip-path"><path class="cls-1" d="M37.26,52.63l-.12.15c-1.61,2-3.23,3.91-4.85,5.87-.31.37-.62.74-.92,1.12a.88.88,0,0,0,.69,1.43h9.61V58.83H35.19l.09-.13,2.43-2.93,3.33-4a.88.88,0,0,0-.69-1.45H31.69v2.34Z"/></clipPath><clipPath id="clip-path-2"><polygon class="cls-1" points="27.49 61.23 29.85 61.23 21.8 42.6 19.42 42.6 27.49 61.23"/></clipPath><clipPath id="clip-path-3"><polygon class="cls-1" points="53.55 42.6 51.17 42.6 43.13 61.23 45.49 61.23 53.55 42.6"/></clipPath></defs><g id="ZO"><path d="M56.91,33.35V20A16.36,16.36,0,0,0,40.57,3.62H32.4A16.36,16.36,0,0,0,16.06,20V33.35a8.12,8.12,0,0,0-4.08,7V60.81A8.17,8.17,0,0,0,20.15,69H52.83A8.17,8.17,0,0,0,61,60.81V40.38A8.11,8.11,0,0,0,56.91,33.35Zm-8.17-1.14H24.23V20a8.17,8.17,0,0,1,8.17-8.17h8.17A8.17,8.17,0,0,1,48.74,20Z"/><g class="cls-2"><rect class="cls-3" x="31.11" y="50.29" width="10.56" height="10.91"/><circle class="cls-3" cx="36.42" cy="55.74" r="5.35"/><circle class="cls-4" cx="36.42" cy="55.74" r="5.3"/><circle class="cls-5" cx="36.42" cy="55.74" r="5.25"/><circle class="cls-6" cx="36.42" cy="55.74" r="5.2"/><circle class="cls-7" cx="36.42" cy="55.74" r="5.14"/><circle class="cls-8" cx="36.42" cy="55.74" r="5.09"/><circle class="cls-9" cx="36.42" cy="55.74" r="5.04"/><circle class="cls-10" cx="36.42" cy="55.74" r="4.99"/><circle class="cls-11" cx="36.42" cy="55.74" r="4.93"/><circle class="cls-12" cx="36.42" cy="55.74" r="4.88"/><circle class="cls-13" cx="36.42" cy="55.74" r="4.83"/><circle class="cls-14" cx="36.42" cy="55.74" r="4.78"/><circle class="cls-15" cx="36.42" cy="55.74" r="4.72"/><circle class="cls-16" cx="36.42" cy="55.74" r="4.67"/><circle class="cls-17" cx="36.42" cy="55.74" r="4.62"/><circle class="cls-18" cx="36.42" cy="55.74" r="4.57"/><circle class="cls-19" cx="36.42" cy="55.74" r="4.51"/><circle class="cls-20" cx="36.42" cy="55.74" r="4.46"/><circle class="cls-21" cx="36.42" cy="55.74" r="4.41"/><circle class="cls-22" cx="36.42" cy="55.74" r="4.36"/><circle class="cls-23" cx="36.42" cy="55.74" r="4.3"/><circle class="cls-24" cx="36.42" cy="55.74" r="4.25"/><circle class="cls-25" cx="36.42" cy="55.74" r="4.2"/><circle class="cls-26" cx="36.42" cy="55.74" r="4.15"/><circle class="cls-27" cx="36.42" cy="55.74" r="4.09"/><circle class="cls-28" cx="36.42" cy="55.74" r="4.04"/><circle class="cls-29" cx="36.42" cy="55.74" r="3.99"/><circle class="cls-30" cx="36.42" cy="55.74" r="3.94"/><circle class="cls-31" cx="36.42" cy="55.74" r="3.88"/><circle class="cls-32" cx="36.42" cy="55.74" r="3.83"/><circle class="cls-33" cx="36.42" cy="55.74" r="3.78"/><circle class="cls-34" cx="36.42" cy="55.74" r="3.73"/><circle class="cls-35" cx="36.42" cy="55.74" r="3.67"/><circle class="cls-36" cx="36.42" cy="55.74" r="3.62"/><circle class="cls-37" cx="36.42" cy="55.74" r="3.57"/><circle class="cls-38" cx="36.42" cy="55.74" r="3.52"/><circle class="cls-39" cx="36.42" cy="55.74" r="3.46"/><circle class="cls-40" cx="36.42" cy="55.74" r="3.41"/><circle class="cls-41" cx="36.42" cy="55.74" r="3.36"/><circle class="cls-42" cx="36.42" cy="55.74" r="3.31"/><circle class="cls-43" cx="36.42" cy="55.74" r="3.25"/><circle class="cls-44" cx="36.42" cy="55.74" r="3.2"/><circle class="cls-45" cx="36.42" cy="55.74" r="3.15"/><circle class="cls-46" cx="36.42" cy="55.74" r="3.1"/><circle class="cls-47" cx="36.42" cy="55.74" r="3.04"/><circle class="cls-48" cx="36.42" cy="55.74" r="2.99"/><circle class="cls-49" cx="36.42" cy="55.74" r="2.94"/><circle class="cls-50" cx="36.42" cy="55.74" r="2.89"/><circle class="cls-51" cx="36.42" cy="55.74" r="2.83"/><circle class="cls-52" cx="36.42" cy="55.74" r="2.78"/><circle class="cls-53" cx="36.42" cy="55.74" r="2.73"/><circle class="cls-54" cx="36.42" cy="55.74" r="2.68"/><circle class="cls-55" cx="36.42" cy="55.74" r="2.62"/><circle class="cls-56" cx="36.42" cy="55.74" r="2.57"/><circle class="cls-57" cx="36.42" cy="55.74" r="2.52"/><circle class="cls-58" cx="36.42" cy="55.74" r="2.47"/><circle class="cls-59" cx="36.42" cy="55.74" r="2.41"/><circle class="cls-60" cx="36.42" cy="55.74" r="2.36"/><circle class="cls-61" cx="36.42" cy="55.74" r="2.31"/><circle class="cls-62" cx="36.42" cy="55.74" r="2.26"/><circle class="cls-63" cx="36.42" cy="55.74" r="2.2"/><circle class="cls-64" cx="36.42" cy="55.74" r="2.15"/><circle class="cls-65" cx="36.42" cy="55.74" r="2.1"/><circle class="cls-66" cx="36.42" cy="55.74" r="2.05"/><circle class="cls-67" cx="36.42" cy="55.74" r="1.99"/><circle class="cls-68" cx="36.42" cy="55.74" r="1.94"/><circle class="cls-69" cx="36.42" cy="55.74" r="1.89"/><circle class="cls-70" cx="36.42" cy="55.74" r="1.84"/><circle class="cls-71" cx="36.42" cy="55.74" r="1.78"/><circle class="cls-72" cx="36.42" cy="55.74" r="1.73"/><circle class="cls-73" cx="36.42" cy="55.74" r="1.68"/><circle class="cls-74" cx="36.42" cy="55.74" r="1.63"/><circle class="cls-75" cx="36.42" cy="55.74" r="1.57"/><circle class="cls-76" cx="36.42" cy="55.74" r="1.52"/><circle class="cls-77" cx="36.42" cy="55.74" r="1.47"/><circle class="cls-78" cx="36.42" cy="55.74" r="1.42"/><circle class="cls-79" cx="36.42" cy="55.74" r="1.36"/><circle class="cls-80" cx="36.42" cy="55.74" r="1.31"/><circle class="cls-81" cx="36.42" cy="55.74" r="1.26"/><circle class="cls-82" cx="36.42" cy="55.74" r="1.21"/><circle class="cls-83" cx="36.42" cy="55.74" r="1.15"/><circle class="cls-84" cx="36.42" cy="55.74" r="1.1"/><circle class="cls-85" cx="36.42" cy="55.74" r="1.05"/><circle class="cls-86" cx="36.42" cy="55.74" r="1"/><circle class="cls-86" cx="36.42" cy="55.74" r="0.94"/><circle class="cls-87" cx="36.42" cy="55.74" r="0.89"/><circle class="cls-88" cx="36.42" cy="55.74" r="0.84"/><circle class="cls-89" cx="36.42" cy="55.74" r="0.79"/><circle class="cls-90" cx="36.42" cy="55.74" r="0.73"/><circle class="cls-91" cx="36.42" cy="55.74" r="0.68"/><circle class="cls-92" cx="36.42" cy="55.74" r="0.63"/><circle class="cls-93" cx="36.42" cy="55.74" r="0.58"/><circle class="cls-94" cx="36.42" cy="55.74" r="0.52"/><circle class="cls-95" cx="36.42" cy="55.74" r="0.47"/><circle class="cls-96" cx="36.42" cy="55.74" r="0.42"/><circle class="cls-96" cx="36.42" cy="55.74" r="0.37"/><circle class="cls-97" cx="36.42" cy="55.74" r="0.31"/><circle class="cls-98" cx="36.42" cy="55.74" r="0.26"/><circle class="cls-98" cx="36.42" cy="55.74" r="0.21"/><circle class="cls-99" cx="36.42" cy="55.74" r="0.16"/><circle class="cls-100" cx="36.42" cy="55.74" r="0.1"/><circle class="cls-100" cx="36.42" cy="55.74" r="0.05"/></g><g class="cls-101"><rect class="cls-3" x="19.42" y="42.6" width="10.43" height="18.63"/><circle class="cls-3" cx="24.64" cy="51.92" r="7.55"/><circle class="cls-4" cx="24.64" cy="51.92" r="7.47"/><circle class="cls-5" cx="24.64" cy="51.92" r="7.4"/><circle class="cls-6" cx="24.64" cy="51.92" r="7.33"/><circle class="cls-7" cx="24.64" cy="51.92" r="7.25"/><circle class="cls-8" cx="24.64" cy="51.92" r="7.18"/><circle class="cls-9" cx="24.64" cy="51.92" r="7.1"/><circle class="cls-10" cx="24.64" cy="51.92" r="7.03"/><circle class="cls-11" cx="24.64" cy="51.92" r="6.96"/><circle class="cls-12" cx="24.64" cy="51.92" r="6.88"/><circle class="cls-13" cx="24.64" cy="51.92" r="6.81"/><circle class="cls-14" cx="24.64" cy="51.92" r="6.73"/><circle class="cls-15" cx="24.64" cy="51.92" r="6.66"/><circle class="cls-16" cx="24.64" cy="51.92" r="6.59"/><circle class="cls-17" cx="24.64" cy="51.92" r="6.51"/><circle class="cls-18" cx="24.64" cy="51.92" r="6.44"/><circle class="cls-19" cx="24.64" cy="51.92" r="6.36"/><circle class="cls-20" cx="24.64" cy="51.92" r="6.29"/><circle class="cls-21" cx="24.64" cy="51.92" r="6.22"/><circle class="cls-22" cx="24.64" cy="51.92" r="6.14"/><circle class="cls-23" cx="24.64" cy="51.92" r="6.07"/><circle class="cls-24" cx="24.64" cy="51.92" r="5.99"/><circle class="cls-25" cx="24.64" cy="51.92" r="5.92"/><circle class="cls-26" cx="24.64" cy="51.92" r="5.85"/><circle class="cls-27" cx="24.64" cy="51.92" r="5.77"/><circle class="cls-28" cx="24.64" cy="51.92" r="5.7"/><circle class="cls-29" cx="24.64" cy="51.92" r="5.62"/><circle class="cls-30" cx="24.64" cy="51.92" r="5.55"/><circle class="cls-31" cx="24.64" cy="51.92" r="5.48"/><circle class="cls-32" cx="24.64" cy="51.92" r="5.4"/><circle class="cls-33" cx="24.64" cy="51.92" r="5.33"/><circle class="cls-34" cx="24.64" cy="51.92" r="5.25"/><circle class="cls-35" cx="24.64" cy="51.92" r="5.18"/><circle class="cls-36" cx="24.64" cy="51.92" r="5.11"/><circle class="cls-37" cx="24.64" cy="51.92" r="5.03"/><circle class="cls-38" cx="24.64" cy="51.92" r="4.96"/><circle class="cls-39" cx="24.64" cy="51.92" r="4.88"/><circle class="cls-40" cx="24.64" cy="51.92" r="4.81"/><circle class="cls-41" cx="24.64" cy="51.92" r="4.74"/><circle class="cls-42" cx="24.64" cy="51.92" r="4.66"/><circle class="cls-43" cx="24.64" cy="51.92" r="4.59"/><circle class="cls-44" cx="24.64" cy="51.92" r="4.51"/><circle class="cls-45" cx="24.64" cy="51.92" r="4.44"/><circle class="cls-46" cx="24.64" cy="51.92" r="4.37"/><circle class="cls-47" cx="24.64" cy="51.92" r="4.29"/><circle class="cls-48" cx="24.64" cy="51.92" r="4.22"/><circle class="cls-49" cx="24.64" cy="51.92" r="4.14"/><circle class="cls-50" cx="24.64" cy="51.92" r="4.07"/><circle class="cls-51" cx="24.64" cy="51.92" r="4"/><circle class="cls-52" cx="24.64" cy="51.92" r="3.92"/><circle class="cls-53" cx="24.64" cy="51.92" r="3.85"/><circle class="cls-54" cx="24.64" cy="51.92" r="3.77"/><circle class="cls-55" cx="24.64" cy="51.92" r="3.7"/><circle class="cls-56" cx="24.64" cy="51.92" r="3.63"/><circle class="cls-57" cx="24.64" cy="51.92" r="3.55"/><circle class="cls-58" cx="24.64" cy="51.92" r="3.48"/><circle class="cls-59" cx="24.64" cy="51.92" r="3.4"/><circle class="cls-60" cx="24.64" cy="51.92" r="3.33"/><circle class="cls-61" cx="24.64" cy="51.92" r="3.26"/><circle class="cls-62" cx="24.64" cy="51.92" r="3.18"/><circle class="cls-63" cx="24.64" cy="51.92" r="3.11"/><circle class="cls-64" cx="24.64" cy="51.92" r="3.03"/><circle class="cls-65" cx="24.64" cy="51.92" r="2.96"/><circle class="cls-66" cx="24.64" cy="51.92" r="2.89"/><circle class="cls-67" cx="24.64" cy="51.92" r="2.81"/><circle class="cls-68" cx="24.64" cy="51.92" r="2.74"/><circle class="cls-69" cx="24.64" cy="51.92" r="2.66"/><circle class="cls-70" cx="24.64" cy="51.92" r="2.59"/><circle class="cls-71" cx="24.64" cy="51.92" r="2.52"/><circle class="cls-72" cx="24.64" cy="51.92" r="2.44"/><circle class="cls-73" cx="24.64" cy="51.92" r="2.37"/><circle class="cls-74" cx="24.64" cy="51.92" r="2.29"/><circle class="cls-75" cx="24.64" cy="51.92" r="2.22"/><circle class="cls-76" cx="24.64" cy="51.92" r="2.15"/><circle class="cls-77" cx="24.64" cy="51.92" r="2.07"/><circle class="cls-78" cx="24.64" cy="51.92" r="2"/><circle class="cls-79" cx="24.64" cy="51.92" r="1.92"/><circle class="cls-80" cx="24.64" cy="51.92" r="1.85"/><circle class="cls-81" cx="24.64" cy="51.92" r="1.78"/><circle class="cls-82" cx="24.64" cy="51.92" r="1.7"/><circle class="cls-83" cx="24.64" cy="51.92" r="1.63"/><circle class="cls-84" cx="24.64" cy="51.92" r="1.55"/><circle class="cls-85" cx="24.64" cy="51.92" r="1.48"/><circle class="cls-86" cx="24.64" cy="51.92" r="1.41"/><circle class="cls-86" cx="24.64" cy="51.92" r="1.33"/><circle class="cls-87" cx="24.64" cy="51.92" r="1.26"/><circle class="cls-88" cx="24.64" cy="51.92" r="1.18"/><circle class="cls-89" cx="24.64" cy="51.92" r="1.11"/><circle class="cls-90" cx="24.64" cy="51.92" r="1.04"/><circle class="cls-91" cx="24.64" cy="51.92" r="0.96"/><circle class="cls-92" cx="24.64" cy="51.92" r="0.89"/><circle class="cls-93" cx="24.64" cy="51.92" r="0.81"/><circle class="cls-94" cx="24.64" cy="51.92" r="0.74"/><circle class="cls-95" cx="24.64" cy="51.92" r="0.67"/><circle class="cls-96" cx="24.64" cy="51.92" r="0.59"/><circle class="cls-96" cx="24.64" cy="51.92" r="0.52"/><circle class="cls-97" cx="24.64" cy="51.92" r="0.44"/><circle class="cls-98" cx="24.64" cy="51.92" r="0.37"/><circle class="cls-98" cx="24.64" cy="51.92" r="0.3"/><circle class="cls-99" cx="24.64" cy="51.92" r="0.22"/><circle class="cls-100" cx="24.64" cy="51.92" r="0.15"/><circle class="cls-100" cx="24.64" cy="51.92" r="0.07"/></g><g class="cls-102"><rect class="cls-3" x="43.13" y="42.6" width="10.43" height="18.63"/><circle class="cls-3" cx="48.34" cy="51.92" r="7.55"/><circle class="cls-4" cx="48.34" cy="51.92" r="7.47"/><circle class="cls-5" cx="48.34" cy="51.92" r="7.4"/><circle class="cls-6" cx="48.34" cy="51.92" r="7.33"/><circle class="cls-7" cx="48.34" cy="51.92" r="7.25"/><circle class="cls-8" cx="48.34" cy="51.92" r="7.18"/><circle class="cls-9" cx="48.34" cy="51.92" r="7.1"/><circle class="cls-10" cx="48.34" cy="51.92" r="7.03"/><circle class="cls-11" cx="48.34" cy="51.92" r="6.96"/><circle class="cls-12" cx="48.34" cy="51.92" r="6.88"/><circle class="cls-13" cx="48.34" cy="51.92" r="6.81"/><circle class="cls-14" cx="48.34" cy="51.92" r="6.73"/><circle class="cls-15" cx="48.34" cy="51.92" r="6.66"/><circle class="cls-16" cx="48.34" cy="51.92" r="6.59"/><circle class="cls-17" cx="48.34" cy="51.92" r="6.51"/><circle class="cls-18" cx="48.34" cy="51.92" r="6.44"/><circle class="cls-19" cx="48.34" cy="51.92" r="6.36"/><circle class="cls-20" cx="48.34" cy="51.92" r="6.29"/><circle class="cls-21" cx="48.34" cy="51.92" r="6.22"/><circle class="cls-22" cx="48.34" cy="51.92" r="6.14"/><circle class="cls-23" cx="48.34" cy="51.92" r="6.07"/><circle class="cls-24" cx="48.34" cy="51.92" r="5.99"/><circle class="cls-25" cx="48.34" cy="51.92" r="5.92"/><circle class="cls-26" cx="48.34" cy="51.92" r="5.85"/><circle class="cls-27" cx="48.34" cy="51.92" r="5.77"/><circle class="cls-28" cx="48.34" cy="51.92" r="5.7"/><circle class="cls-29" cx="48.34" cy="51.92" r="5.62"/><circle class="cls-30" cx="48.34" cy="51.92" r="5.55"/><circle class="cls-31" cx="48.34" cy="51.92" r="5.48"/><circle class="cls-32" cx="48.34" cy="51.92" r="5.4"/><circle class="cls-33" cx="48.34" cy="51.92" r="5.33"/><circle class="cls-34" cx="48.34" cy="51.92" r="5.25"/><circle class="cls-35" cx="48.34" cy="51.92" r="5.18"/><circle class="cls-36" cx="48.34" cy="51.92" r="5.11"/><circle class="cls-37" cx="48.34" cy="51.92" r="5.03"/><circle class="cls-38" cx="48.34" cy="51.92" r="4.96"/><circle class="cls-39" cx="48.34" cy="51.92" r="4.88"/><circle class="cls-40" cx="48.34" cy="51.92" r="4.81"/><circle class="cls-41" cx="48.34" cy="51.92" r="4.74"/><circle class="cls-42" cx="48.34" cy="51.92" r="4.66"/><circle class="cls-43" cx="48.34" cy="51.92" r="4.59"/><circle class="cls-44" cx="48.34" cy="51.92" r="4.51"/><circle class="cls-45" cx="48.34" cy="51.92" r="4.44"/><circle class="cls-46" cx="48.34" cy="51.92" r="4.37"/><circle class="cls-47" cx="48.34" cy="51.92" r="4.29"/><circle class="cls-48" cx="48.34" cy="51.92" r="4.22"/><circle class="cls-49" cx="48.34" cy="51.92" r="4.14"/><circle class="cls-50" cx="48.34" cy="51.92" r="4.07"/><circle class="cls-51" cx="48.34" cy="51.92" r="4"/><circle class="cls-52" cx="48.34" cy="51.92" r="3.92"/><circle class="cls-53" cx="48.34" cy="51.92" r="3.85"/><circle class="cls-54" cx="48.34" cy="51.92" r="3.77"/><circle class="cls-55" cx="48.34" cy="51.92" r="3.7"/><circle class="cls-56" cx="48.34" cy="51.92" r="3.63"/><circle class="cls-57" cx="48.34" cy="51.92" r="3.55"/><circle class="cls-58" cx="48.34" cy="51.92" r="3.48"/><circle class="cls-59" cx="48.34" cy="51.92" r="3.4"/><circle class="cls-60" cx="48.34" cy="51.92" r="3.33"/><circle class="cls-61" cx="48.34" cy="51.92" r="3.26"/><circle class="cls-62" cx="48.34" cy="51.92" r="3.18"/><circle class="cls-63" cx="48.34" cy="51.92" r="3.11"/><circle class="cls-64" cx="48.34" cy="51.92" r="3.03"/><circle class="cls-65" cx="48.34" cy="51.92" r="2.96"/><circle class="cls-66" cx="48.34" cy="51.92" r="2.89"/><circle class="cls-67" cx="48.34" cy="51.92" r="2.81"/><circle class="cls-68" cx="48.34" cy="51.92" r="2.74"/><circle class="cls-69" cx="48.34" cy="51.92" r="2.66"/><circle class="cls-70" cx="48.34" cy="51.92" r="2.59"/><circle class="cls-71" cx="48.34" cy="51.92" r="2.52"/><circle class="cls-72" cx="48.34" cy="51.92" r="2.44"/><circle class="cls-73" cx="48.34" cy="51.92" r="2.37"/><circle class="cls-74" cx="48.34" cy="51.92" r="2.29"/><circle class="cls-75" cx="48.34" cy="51.92" r="2.22"/><circle class="cls-76" cx="48.34" cy="51.92" r="2.15"/><circle class="cls-77" cx="48.34" cy="51.92" r="2.07"/><circle class="cls-78" cx="48.34" cy="51.92" r="2"/><circle class="cls-79" cx="48.34" cy="51.92" r="1.92"/><circle class="cls-80" cx="48.34" cy="51.92" r="1.85"/><circle class="cls-81" cx="48.34" cy="51.92" r="1.78"/><circle class="cls-82" cx="48.34" cy="51.92" r="1.7"/><circle class="cls-83" cx="48.34" cy="51.92" r="1.63"/><circle class="cls-84" cx="48.34" cy="51.92" r="1.55"/><circle class="cls-85" cx="48.34" cy="51.92" r="1.48"/><circle class="cls-86" cx="48.34" cy="51.92" r="1.41"/><circle class="cls-86" cx="48.34" cy="51.92" r="1.33"/><circle class="cls-87" cx="48.34" cy="51.92" r="1.26"/><circle class="cls-88" cx="48.34" cy="51.92" r="1.18"/><circle class="cls-89" cx="48.34" cy="51.92" r="1.11"/><circle class="cls-90" cx="48.34" cy="51.92" r="1.04"/><circle class="cls-91" cx="48.34" cy="51.92" r="0.96"/><circle class="cls-92" cx="48.34" cy="51.92" r="0.89"/><circle class="cls-93" cx="48.34" cy="51.92" r="0.81"/><circle class="cls-94" cx="48.34" cy="51.92" r="0.74"/><circle class="cls-95" cx="48.34" cy="51.92" r="0.67"/><circle class="cls-96" cx="48.34" cy="51.92" r="0.59"/><circle class="cls-96" cx="48.34" cy="51.92" r="0.52"/><circle class="cls-97" cx="48.34" cy="51.92" r="0.44"/><circle class="cls-98" cx="48.34" cy="51.92" r="0.37"/><circle class="cls-98" cx="48.34" cy="51.92" r="0.3"/><circle class="cls-99" cx="48.34" cy="51.92" r="0.22"/><circle class="cls-100" cx="48.34" cy="51.92" r="0.15"/><circle class="cls-100" cx="48.34" cy="51.92" r="0.07"/></g></g></svg>