<svg xmlns="http://www.w3.org/2000/svg" xmlns:xlink="http://www.w3.org/1999/xlink" viewBox="0 0 72 72"><defs><style>.cls-1{fill:none;}.cls-2{clip-path:url(#clip-path);}.cls-3{fill:#ffb40d;}.cls-4{fill:#ffb40e;}.cls-5{fill:#ffb50f;}.cls-6{fill:#ffb511;}.cls-7{fill:#ffb512;}.cls-8{fill:#ffb613;}.cls-9{fill:#ffb614;}.cls-10{fill:#ffb715;}.cls-11{fill:#ffb716;}.cls-12{fill:#ffb718;}.cls-13{fill:#ffb819;}.cls-14{fill:#ffb81a;}.cls-15{fill:#ffb81b;}.cls-16{fill:#ffb91c;}.cls-17{fill:#ffb91d;}.cls-18{fill:#ffba1f;}.cls-19{fill:#ffba20;}.cls-20{fill:#ffba21;}.cls-21{fill:#fb2;}.cls-22{fill:#ffbb23;}.cls-23{fill:#ffbb24;}.cls-24{fill:#ffbc25;}.cls-25{fill:#ffbc27;}.cls-26{fill:#ffbc28;}.cls-27{fill:#ffbd29;}.cls-28{fill:#ffbd2a;}.cls-29{fill:#ffbd2b;}.cls-30{fill:#ffbe2c;}.cls-31{fill:#ffbe2d;}.cls-32{fill:#ffbf2e;}.cls-33{fill:#ffbf30;}.cls-34{fill:#ffbf31;}.cls-35{fill:#ffc032;}.cls-36{fill:#ffc033;}.cls-37{fill:#ffc034;}.cls-38{fill:#ffc135;}.cls-39{fill:#ffc136;}.cls-40{fill:#ffc137;}.cls-41{fill:#ffc238;}.cls-42{fill:#ffc23a;}.cls-43{fill:#ffc23b;}.cls-44{fill:#ffc33c;}.cls-45{fill:#ffc33d;}.cls-46{fill:#ffc33e;}.cls-47{fill:#ffc43f;}.cls-48{fill:#ffc440;}.cls-49{fill:#ffc441;}.cls-50{fill:#ffc542;}.cls-51{fill:#ffc543;}.cls-52{fill:#ffc544;}.cls-53{fill:#ffc645;}.cls-54{fill:#ffc646;}.cls-55{fill:#ffc647;}.cls-56{fill:#ffc748;}.cls-57{fill:#ffc74a;}.cls-58{fill:#ffc74b;}.cls-59{fill:#ffc84c;}.cls-60{fill:#ffc84d;}.cls-61{fill:#ffc84e;}.cls-62{fill:#ffc94f;}.cls-63{fill:#ffc950;}.cls-64{fill:#ffc951;}.cls-65{fill:#ffca52;}.cls-66{fill:#ffca53;}.cls-67{fill:#ffca54;}.cls-68{fill:#ffca55;}.cls-69{fill:#ffcb56;}.cls-70{fill:#ffcb57;}.cls-71{fill:#ffcb58;}.cls-72{fill:#ffcc59;}.cls-73{fill:#ffcc5a;}.cls-74{fill:#ffcc5b;}.cls-75{fill:#ffcd5b;}.cls-76{fill:#ffcd5c;}.cls-77{fill:#ffcd5d;}.cls-78{fill:#ffce5e;}.cls-79{fill:#ffce5f;}.cls-80{fill:#ffce60;}.cls-81{fill:#ffce61;}.cls-82{fill:#ffcf62;}.cls-83{fill:#ffcf63;}.cls-84{fill:#ffcf64;}.cls-85{fill:#ffd065;}.cls-86{fill:#ffd066;}.cls-87{fill:#ffd067;}.cls-88{fill:#ffd168;}.cls-89{fill:#ffd169;}.cls-90{fill:#ffd16a;}.cls-91{fill:#ffd16b;}.cls-92{fill:#ffd26b;}.cls-93{fill:#ffd26c;}.cls-94{fill:#ffd26d;}.cls-95{fill:#ffd26e;}.cls-96{fill:#ffd36f;}.cls-97{fill:#ffd370;}.cls-98{fill:#ffd371;}.cls-99{fill:#ffd472;}.cls-100{fill:#ffd473;}.cls-101{clip-path:url(#clip-path-2);}.cls-102{clip-path:url(#clip-path-3);}.cls-103{clip-path:url(#clip-path-4);}.cls-104{clip-path:url(#clip-path-5);}.cls-105{clip-path:url(#clip-path-6);}</style><clipPath id="clip-path"><path class="cls-1" d="M57.8,19.84l-.11.05-4.22,1.74-.76.31a.47.47,0,0,0-.29.44.49.49,0,0,0,.25.47l4.56,2.63.08,0L58,24.39l-3.2-1.84.09,0L57,21.69l3.07-1.21a.61.61,0,0,0,.41-.5.49.49,0,0,0-.25-.54L55.7,16.82l-.08-.05-.73,1.39Z"/></clipPath><clipPath id="clip-path-2"><polygon class="cls-1" points="50.46 21.6 51.6 22.25 52.52 8.39 51.14 7.6 50.46 21.6"/></clipPath><clipPath id="clip-path-3"><polygon class="cls-1" points="70.92 19.01 69.54 18.22 58 25.95 59.14 26.61 70.92 19.01"/></clipPath><clipPath id="clip-path-4"><path class="cls-1" d="M51.27,30l-.07,0L48.64,31.1l-.45.19a.27.27,0,0,0-.18.27.29.29,0,0,0,.15.28l2.77,1.6,0,0,.44-.68-1.94-1.12.05,0,1.27-.5,1.86-.73a.38.38,0,0,0,.25-.31.29.29,0,0,0-.15-.33L50,28.18l0,0-.44.84Z"/></clipPath><clipPath id="clip-path-5"><polygon class="cls-1" points="46.82 31.08 47.51 31.48 48.07 23.07 47.23 22.59 46.82 31.08"/></clipPath><clipPath id="clip-path-6"><polygon class="cls-1" points="59.23 29.52 58.4 29.03 51.4 33.72 52.09 34.12 59.23 29.52"/></clipPath></defs><g id="ZO"><path d="M45,34.17a17.91,17.91,0,0,1-4.21,1.38,9.49,9.49,0,0,0-6.62-4.42A10.31,10.31,0,0,0,32.76,31a9.36,9.36,0,0,0-9.31,8,11,11,0,0,0-.14,1.51A22.06,22.06,0,0,1,11,29.27a1,1,0,0,0-.69-.48,1.09,1.09,0,0,0-.76.34,9.41,9.41,0,0,0-1.17,8c-.14,0-.28-.07-.35,0a.74.74,0,0,0-.62.62A9.58,9.58,0,0,0,9.24,46a.64.64,0,0,0-.49.21.8.8,0,0,0-.27.83,9.28,9.28,0,0,0,5.65,6.41,22.1,22.1,0,0,1-9,1.24.85.85,0,0,0-.56,1.52,23.88,23.88,0,0,0,10.63,4.48,21.37,21.37,0,0,0,3.65.28A23.73,23.73,0,0,0,41.66,43.69,8.51,8.51,0,0,0,42.07,42c0-.14.07-.27.07-.41s.07-.42.14-.62h0a21.07,21.07,0,0,0,3.86-5.59.84.84,0,0,0-.14-.9A.8.8,0,0,0,45,34.17Zm-10.39,4.7A1.64,1.64,0,0,1,33,36.55a1.6,1.6,0,0,1,1.35-.95A1.64,1.64,0,0,1,36,37.92,1.6,1.6,0,0,1,34.65,38.87Z"/><g class="cls-2"><rect class="cls-3" x="52.41" y="16.77" width="8.13" height="8.76"/><circle class="cls-3" cx="56.48" cy="21.15" r="3.18"/><circle class="cls-4" cx="56.48" cy="21.15" r="3.14"/><circle class="cls-5" cx="56.48" cy="21.15" r="3.11"/><circle class="cls-6" cx="56.48" cy="21.15" r="3.08"/><circle class="cls-7" cx="56.48" cy="21.15" r="3.05"/><circle class="cls-8" cx="56.48" cy="21.15" r="3.02"/><circle class="cls-9" cx="56.48" cy="21.15" r="2.99"/><circle class="cls-10" cx="56.48" cy="21.15" r="2.96"/><circle class="cls-11" cx="56.48" cy="21.15" r="2.93"/><circle class="cls-12" cx="56.48" cy="21.15" r="2.9"/><circle class="cls-13" cx="56.48" cy="21.15" r="2.86"/><circle class="cls-14" cx="56.48" cy="21.15" r="2.83"/><circle class="cls-15" cx="56.48" cy="21.15" r="2.8"/><circle class="cls-16" cx="56.48" cy="21.15" r="2.77"/><circle class="cls-17" cx="56.48" cy="21.15" r="2.74"/><circle class="cls-18" cx="56.48" cy="21.15" r="2.71"/><circle class="cls-19" cx="56.48" cy="21.15" r="2.68"/><circle class="cls-20" cx="56.48" cy="21.15" r="2.65"/><circle class="cls-21" cx="56.48" cy="21.15" r="2.62"/><circle class="cls-22" cx="56.48" cy="21.15" r="2.58"/><circle class="cls-23" cx="56.48" cy="21.15" r="2.55"/><circle class="cls-24" cx="56.48" cy="21.15" r="2.52"/><circle class="cls-25" cx="56.48" cy="21.15" r="2.49"/><circle class="cls-26" cx="56.48" cy="21.15" r="2.46"/><circle class="cls-27" cx="56.48" cy="21.15" r="2.43"/><circle class="cls-28" cx="56.48" cy="21.15" r="2.4"/><circle class="cls-29" cx="56.48" cy="21.15" r="2.37"/><circle class="cls-30" cx="56.48" cy="21.15" r="2.34"/><circle class="cls-31" cx="56.48" cy="21.15" r="2.3"/><circle class="cls-32" cx="56.48" cy="21.15" r="2.27"/><circle class="cls-33" cx="56.48" cy="21.15" r="2.24"/><circle class="cls-34" cx="56.48" cy="21.15" r="2.21"/><circle class="cls-35" cx="56.48" cy="21.15" r="2.18"/><circle class="cls-36" cx="56.48" cy="21.15" r="2.15"/><circle class="cls-37" cx="56.48" cy="21.15" r="2.12"/><circle class="cls-38" cx="56.48" cy="21.15" r="2.09"/><circle class="cls-39" cx="56.48" cy="21.15" r="2.05"/><circle class="cls-40" cx="56.48" cy="21.15" r="2.02"/><circle class="cls-41" cx="56.48" cy="21.15" r="1.99"/><circle class="cls-42" cx="56.48" cy="21.15" r="1.96"/><circle class="cls-43" cx="56.48" cy="21.15" r="1.93"/><circle class="cls-44" cx="56.48" cy="21.15" r="1.9"/><circle class="cls-45" cx="56.48" cy="21.15" r="1.87"/><circle class="cls-46" cx="56.48" cy="21.15" r="1.84"/><circle class="cls-47" cx="56.48" cy="21.15" r="1.81"/><circle class="cls-48" cx="56.48" cy="21.15" r="1.77"/><circle class="cls-49" cx="56.48" cy="21.15" r="1.74"/><circle class="cls-50" cx="56.48" cy="21.15" r="1.71"/><circle class="cls-51" cx="56.48" cy="21.15" r="1.68"/><circle class="cls-52" cx="56.48" cy="21.15" r="1.65"/><circle class="cls-53" cx="56.48" cy="21.15" r="1.62"/><circle class="cls-54" cx="56.48" cy="21.15" r="1.59"/><circle class="cls-55" cx="56.48" cy="21.15" r="1.56"/><circle class="cls-56" cx="56.48" cy="21.15" r="1.53"/><circle class="cls-57" cx="56.48" cy="21.15" r="1.49"/><circle class="cls-58" cx="56.48" cy="21.15" r="1.46"/><circle class="cls-59" cx="56.48" cy="21.15" r="1.43"/><circle class="cls-60" cx="56.48" cy="21.15" r="1.4"/><circle class="cls-61" cx="56.48" cy="21.15" r="1.37"/><circle class="cls-62" cx="56.48" cy="21.15" r="1.34"/><circle class="cls-63" cx="56.48" cy="21.15" r="1.31"/><circle class="cls-64" cx="56.48" cy="21.15" r="1.28"/><circle class="cls-65" cx="56.48" cy="21.15" r="1.25"/><circle class="cls-66" cx="56.48" cy="21.15" r="1.21"/><circle class="cls-67" cx="56.48" cy="21.15" r="1.18"/><circle class="cls-68" cx="56.48" cy="21.15" r="1.15"/><circle class="cls-69" cx="56.48" cy="21.15" r="1.12"/><circle class="cls-70" cx="56.48" cy="21.15" r="1.09"/><circle class="cls-71" cx="56.48" cy="21.15" r="1.06"/><circle class="cls-72" cx="56.48" cy="21.15" r="1.03"/><circle class="cls-73" cx="56.48" cy="21.15" r="1"/><circle class="cls-74" cx="56.48" cy="21.15" r="0.97"/><circle class="cls-75" cx="56.48" cy="21.15" r="0.93"/><circle class="cls-76" cx="56.48" cy="21.15" r="0.9"/><circle class="cls-77" cx="56.48" cy="21.15" r="0.87"/><circle class="cls-78" cx="56.48" cy="21.15" r="0.84"/><circle class="cls-79" cx="56.48" cy="21.15" r="0.81"/><circle class="cls-80" cx="56.48" cy="21.15" r="0.78"/><circle class="cls-81" cx="56.48" cy="21.15" r="0.75"/><circle class="cls-82" cx="56.48" cy="21.15" r="0.72"/><circle class="cls-83" cx="56.48" cy="21.15" r="0.68"/><circle class="cls-84" cx="56.48" cy="21.15" r="0.65"/><circle class="cls-85" cx="56.48" cy="21.15" r="0.62"/><circle class="cls-86" cx="56.48" cy="21.15" r="0.59"/><circle class="cls-86" cx="56.48" cy="21.15" r="0.56"/><circle class="cls-87" cx="56.48" cy="21.15" r="0.53"/><circle class="cls-88" cx="56.48" cy="21.15" r="0.5"/><circle class="cls-89" cx="56.48" cy="21.15" r="0.47"/><circle class="cls-90" cx="56.48" cy="21.15" r="0.44"/><circle class="cls-91" cx="56.48" cy="21.15" r="0.4"/><circle class="cls-92" cx="56.48" cy="21.15" r="0.37"/><circle class="cls-93" cx="56.48" cy="21.15" r="0.34"/><circle class="cls-94" cx="56.48" cy="21.15" r="0.31"/><circle class="cls-95" cx="56.48" cy="21.15" r="0.28"/><circle class="cls-96" cx="56.48" cy="21.15" r="0.25"/><circle class="cls-96" cx="56.48" cy="21.15" r="0.22"/><circle class="cls-97" cx="56.48" cy="21.15" r="0.19"/><circle class="cls-98" cx="56.48" cy="21.15" r="0.16"/><circle class="cls-98" cx="56.48" cy="21.15" r="0.12"/><circle class="cls-99" cx="56.48" cy="21.15" r="0.09"/><circle class="cls-100" cx="56.48" cy="21.15" r="0.06"/><circle class="cls-100" cx="56.48" cy="21.15" r="0.03"/></g><g class="cls-101"><rect class="cls-3" x="50.46" y="7.6" width="2.06" height="14.65"/><path class="cls-3" d="M55.86,17.52a5.18,5.18,0,0,1-7.08,1.9h.9V12.33h-2.8A5.17,5.17,0,0,1,54,10.44h-.65v7.08Z"/><path class="cls-4" d="M55.82,17.49a5.13,5.13,0,0,1-7,1.88h.87v-7H46.93a5.12,5.12,0,0,1,7-1.88h-.63v7Z"/><path class="cls-5" d="M55.77,17.47a5.08,5.08,0,0,1-6.94,1.86h.85V12.38H47a5.08,5.08,0,0,1,6.94-1.86h-.6v7Z"/><path class="cls-6" d="M55.73,17.44a5,5,0,0,1-6.87,1.84h.82V12.41H47a5,5,0,0,1,6.88-1.84h-.58v6.87Z"/><path class="cls-7" d="M55.69,17.42a5,5,0,0,1-6.81,1.82h.8v-6.8H47.06a5,5,0,0,1,6.8-1.83h-.55v6.81Z"/><path class="cls-8" d="M55.64,17.39a4.93,4.93,0,0,1-6.73,1.81h.77V12.46H47.1a4.92,4.92,0,0,1,6.74-1.8h-.53v6.73Z"/><path class="cls-9" d="M55.6,17.36a4.88,4.88,0,0,1-6.67,1.79h.75V12.49H47.15a4.87,4.87,0,0,1,6.66-1.79h-.5v6.66Z"/><path class="cls-10" d="M55.55,17.34A4.82,4.82,0,0,1,49,19.11h.72v-6.6H47.19a4.84,4.84,0,0,1,6.6-1.77h-.48v6.6Z"/><path class="cls-11" d="M55.51,17.31A4.78,4.78,0,0,1,49,19.06h.7V12.54H47.23a4.78,4.78,0,0,1,6.53-1.75h-.45v6.52Z"/><path class="cls-12" d="M55.47,17.29A4.74,4.74,0,0,1,49,19h.67V12.56h-2.4a4.72,4.72,0,0,1,6.45-1.73h-.42v6.46Z"/><path class="cls-13" d="M55.42,17.26A4.68,4.68,0,0,1,49,19h.65V12.59H47.32a4.67,4.67,0,0,1,6.39-1.71h-.4v6.38Z"/><path class="cls-14" d="M55.38,17.24a4.63,4.63,0,0,1-6.32,1.69h.62V12.61H47.37a4.61,4.61,0,0,1,6.31-1.69h-.37v6.32Z"/><path class="cls-15" d="M55.33,17.21a4.57,4.57,0,0,1-6.24,1.68h.59V12.64H47.41A4.58,4.58,0,0,1,53.66,11h-.35v6.25Z"/><path class="cls-16" d="M55.29,17.19a4.53,4.53,0,0,1-6.18,1.65h.57V12.66H47.45A4.53,4.53,0,0,1,53.63,11h-.32v6.18Z"/><path class="cls-17" d="M55.25,17.16a4.48,4.48,0,0,1-6.11,1.64h.54V12.69H47.5a4.48,4.48,0,0,1,6.11-1.64h-.3v6.11Z"/><path class="cls-18" d="M55.2,17.14a4.43,4.43,0,0,1-6,1.62h.52v-6H47.54a4.42,4.42,0,0,1,6-1.62h-.27v6Z"/><path class="cls-19" d="M55.16,17.11a4.37,4.37,0,0,1-6,1.6h.49v-6H47.59a4.37,4.37,0,0,1,6-1.6h-.25v6Z"/><path class="cls-20" d="M55.11,17.08a4.32,4.32,0,0,1-5.9,1.59h.47v-5.9h-2a4.32,4.32,0,0,1,5.9-1.59h-.22v5.9Z"/><path class="cls-21" d="M55.07,17.06a4.27,4.27,0,0,1-5.83,1.56h.44V12.79h-2a4.28,4.28,0,0,1,5.84-1.56h-.2v5.83Z"/><path class="cls-22" d="M55,17a4.23,4.23,0,0,1-5.77,1.55h.42V12.82h-2a4.22,4.22,0,0,1,5.76-1.55h-.17V17Z"/><path class="cls-23" d="M55,17a4.16,4.16,0,0,1-5.69,1.52h.39V12.84H47.76a4.18,4.18,0,0,1,5.7-1.52h-.15V17Z"/><path class="cls-24" d="M54.94,17a4.12,4.12,0,0,1-5.63,1.51h.37V12.87H47.81a4.11,4.11,0,0,1,5.62-1.51h-.12V17Z"/><path class="cls-25" d="M54.89,17a4.07,4.07,0,0,1-5.55,1.49h.34V12.89H47.85A4.07,4.07,0,0,1,53.4,11.4h-.09V17Z"/><path class="cls-26" d="M54.85,16.93a4,4,0,0,1-5.48,1.47h.31V12.92H47.89a4,4,0,0,1,5.49-1.47h-.07v5.48Z"/><path class="cls-27" d="M54.81,16.91a4,4,0,0,1-5.42,1.45h.29V12.94H47.94a4,4,0,0,1,5.41-1.45h0v5.42Z"/><path class="cls-28" d="M54.76,16.88a3.9,3.9,0,0,1-5.34,1.43h.26V13H48a3.92,3.92,0,0,1,5.35-1.43h0v5.34Z"/><path class="cls-29" d="M54.72,16.86a3.87,3.87,0,0,1-5.28,1.41h.24V13H48a3.86,3.86,0,0,1,6.69,3.87Z"/><path class="cls-30" d="M54.67,16.83a3.81,3.81,0,0,1-5.2,1.4h.21V13H48.07a3.81,3.81,0,1,1,6.6,3.81Z"/><path class="cls-31" d="M54.63,16.81a3.77,3.77,0,0,1-5.14,1.37h.19V13.05H48.11a3.76,3.76,0,1,1,6.52,3.76Z"/><path class="cls-32" d="M54.59,16.78a3.72,3.72,0,0,1-5.07,1.36h.16V13.07H48.16a3.71,3.71,0,1,1,6.43,3.71Z"/><path class="cls-33" d="M54.54,16.75a3.64,3.64,0,0,1-5,1.34h.14v-5H48.2a3.66,3.66,0,0,1,6.34,3.65Z"/><path class="cls-34" d="M54.5,16.73a3.6,3.6,0,0,1-4.93,1.32h.11V13.12H48.25a3.61,3.61,0,0,1,6.25,3.61Z"/><path class="cls-35" d="M54.45,16.7A3.55,3.55,0,0,1,49.59,18h.09V13.15H48.29a3.55,3.55,0,1,1,6.16,3.55Z"/><path class="cls-36" d="M54.41,16.68A3.5,3.5,0,0,1,49.62,18h.06V13.17H48.33a3.51,3.51,0,0,1,6.08,3.51Z"/><path class="cls-37" d="M54.37,16.65a3.47,3.47,0,0,1-4.73,1.27h0V13.2h-1.3a3.46,3.46,0,0,1,6,3.45Z"/><path class="cls-38" d="M54.32,16.63a3.4,3.4,0,0,1-4.65,1.24h0V13.22H48.42a3.41,3.41,0,0,1,5.9,3.41Z"/><circle class="cls-39" cx="51.37" cy="14.93" r="3.35"/><circle class="cls-40" cx="51.37" cy="14.93" r="3.3"/><circle class="cls-41" cx="51.37" cy="14.93" r="3.25"/><circle class="cls-42" cx="51.37" cy="14.93" r="3.2"/><circle class="cls-43" cx="51.37" cy="14.93" r="3.15"/><circle class="cls-44" cx="51.37" cy="14.93" r="3.1"/><circle class="cls-45" cx="51.37" cy="14.93" r="3.05"/><circle class="cls-46" cx="51.37" cy="14.93" r="3"/><circle class="cls-47" cx="51.37" cy="14.93" r="2.95"/><circle class="cls-48" cx="51.37" cy="14.93" r="2.9"/><circle class="cls-49" cx="51.37" cy="14.93" r="2.85"/><circle class="cls-50" cx="51.37" cy="14.93" r="2.8"/><circle class="cls-51" cx="51.37" cy="14.93" r="2.74"/><circle class="cls-52" cx="51.37" cy="14.93" r="2.69"/><circle class="cls-53" cx="51.37" cy="14.93" r="2.64"/><circle class="cls-54" cx="51.37" cy="14.93" r="2.59"/><circle class="cls-55" cx="51.37" cy="14.93" r="2.54"/><circle class="cls-56" cx="51.37" cy="14.93" r="2.49"/><circle class="cls-57" cx="51.37" cy="14.93" r="2.44"/><circle class="cls-58" cx="51.37" cy="14.93" r="2.39"/><circle class="cls-59" cx="51.37" cy="14.93" r="2.34"/><circle class="cls-60" cx="51.37" cy="14.93" r="2.29"/><circle class="cls-61" cx="51.37" cy="14.93" r="2.24"/><circle class="cls-62" cx="51.37" cy="14.93" r="2.19"/><circle class="cls-63" cx="51.37" cy="14.93" r="2.13"/><circle class="cls-64" cx="51.37" cy="14.93" r="2.08"/><circle class="cls-65" cx="51.37" cy="14.93" r="2.03"/><circle class="cls-66" cx="51.37" cy="14.93" r="1.98"/><circle class="cls-67" cx="51.37" cy="14.93" r="1.93"/><circle class="cls-68" cx="51.37" cy="14.93" r="1.88"/><circle class="cls-69" cx="51.37" cy="14.93" r="1.83"/><circle class="cls-70" cx="51.37" cy="14.93" r="1.78"/><circle class="cls-71" cx="51.37" cy="14.93" r="1.73"/><circle class="cls-72" cx="51.37" cy="14.93" r="1.68"/><circle class="cls-73" cx="51.37" cy="14.93" r="1.63"/><circle class="cls-74" cx="51.37" cy="14.93" r="1.58"/><circle class="cls-75" cx="51.37" cy="14.93" r="1.52"/><circle class="cls-76" cx="51.37" cy="14.93" r="1.47"/><circle class="cls-77" cx="51.37" cy="14.93" r="1.42"/><circle class="cls-78" cx="51.37" cy="14.93" r="1.37"/><circle class="cls-79" cx="51.37" cy="14.93" r="1.32"/><circle class="cls-80" cx="51.37" cy="14.93" r="1.27"/><circle class="cls-81" cx="51.37" cy="14.93" r="1.22"/><circle class="cls-82" cx="51.37" cy="14.93" r="1.17"/><circle class="cls-83" cx="51.37" cy="14.93" r="1.12"/><circle class="cls-84" cx="51.37" cy="14.93" r="1.07"/><circle class="cls-85" cx="51.37" cy="14.93" r="1.02"/><circle class="cls-86" cx="51.37" cy="14.93" r="0.97"/><circle class="cls-86" cx="51.37" cy="14.93" r="0.91"/><circle class="cls-87" cx="51.37" cy="14.93" r="0.86"/><circle class="cls-88" cx="51.37" cy="14.93" r="0.81"/><circle class="cls-89" cx="51.37" cy="14.93" r="0.76"/><circle class="cls-90" cx="51.37" cy="14.93" r="0.71"/><circle class="cls-91" cx="51.37" cy="14.93" r="0.66"/><circle class="cls-92" cx="51.37" cy="14.93" r="0.61"/><circle class="cls-93" cx="51.37" cy="14.93" r="0.56"/><circle class="cls-94" cx="51.37" cy="14.93" r="0.51"/><circle class="cls-95" cx="51.37" cy="14.93" r="0.46"/><circle class="cls-96" cx="51.37" cy="14.93" r="0.41"/><circle class="cls-96" cx="51.37" cy="14.93" r="0.36"/><circle class="cls-97" cx="51.37" cy="14.93" r="0.3"/><circle class="cls-98" cx="51.37" cy="14.93" r="0.25"/><circle class="cls-98" cx="51.37" cy="14.93" r="0.2"/><circle class="cls-99" cx="51.37" cy="14.93" r="0.15"/><circle class="cls-100" cx="51.37" cy="14.93" r="0.1"/><circle class="cls-100" cx="51.37" cy="14.93" r="0.05"/></g><g class="cls-102"><rect class="cls-3" x="58" y="18.22" width="12.92" height="8.39"/><circle class="cls-3" cx="64.46" cy="22.48" r="5.18"/><circle class="cls-4" cx="64.46" cy="22.48" r="5.13"/><circle class="cls-5" cx="64.46" cy="22.48" r="5.08"/><circle class="cls-6" cx="64.46" cy="22.48" r="5.03"/><circle class="cls-7" cx="64.46" cy="22.48" r="4.98"/><circle class="cls-8" cx="64.46" cy="22.48" r="4.93"/><circle class="cls-9" cx="64.46" cy="22.48" r="4.88"/><circle class="cls-10" cx="64.46" cy="22.48" r="4.83"/><circle class="cls-11" cx="64.46" cy="22.48" r="4.78"/><circle class="cls-12" cx="64.46" cy="22.48" r="4.73"/><circle class="cls-13" cx="64.46" cy="22.48" r="4.68"/><circle class="cls-14" cx="64.46" cy="22.48" r="4.63"/><circle class="cls-15" cx="64.46" cy="22.48" r="4.57"/><circle class="cls-16" cx="64.46" cy="22.48" r="4.52"/><circle class="cls-17" cx="64.46" cy="22.48" r="4.47"/><circle class="cls-18" cx="64.46" cy="22.48" r="4.42"/><circle class="cls-19" cx="64.46" cy="22.48" r="4.37"/><circle class="cls-20" cx="64.46" cy="22.48" r="4.32"/><circle class="cls-21" cx="64.46" cy="22.48" r="4.27"/><circle class="cls-22" cx="64.46" cy="22.48" r="4.22"/><circle class="cls-23" cx="64.46" cy="22.48" r="4.17"/><circle class="cls-24" cx="64.46" cy="22.48" r="4.12"/><circle class="cls-25" cx="64.46" cy="22.48" r="4.07"/><circle class="cls-26" cx="64.46" cy="22.48" r="4.02"/><circle class="cls-27" cx="64.46" cy="22.48" r="3.96"/><circle class="cls-28" cx="64.46" cy="22.48" r="3.91"/><circle class="cls-29" cx="64.46" cy="22.48" r="3.86"/><circle class="cls-30" cx="64.46" cy="22.48" r="3.81"/><circle class="cls-31" cx="64.46" cy="22.48" r="3.76"/><circle class="cls-32" cx="64.46" cy="22.48" r="3.71"/><circle class="cls-33" cx="64.46" cy="22.48" r="3.66"/><circle class="cls-34" cx="64.46" cy="22.48" r="3.61"/><circle class="cls-35" cx="64.46" cy="22.48" r="3.56"/><circle class="cls-36" cx="64.46" cy="22.48" r="3.51"/><circle class="cls-37" cx="64.46" cy="22.48" r="3.46"/><circle class="cls-38" cx="64.46" cy="22.48" r="3.41"/><circle class="cls-39" cx="64.46" cy="22.48" r="3.35"/><circle class="cls-40" cx="64.46" cy="22.48" r="3.3"/><circle class="cls-41" cx="64.46" cy="22.48" r="3.25"/><circle class="cls-42" cx="64.46" cy="22.48" r="3.2"/><circle class="cls-43" cx="64.46" cy="22.48" r="3.15"/><circle class="cls-44" cx="64.46" cy="22.48" r="3.1"/><circle class="cls-45" cx="64.46" cy="22.48" r="3.05"/><circle class="cls-46" cx="64.46" cy="22.48" r="3"/><circle class="cls-47" cx="64.46" cy="22.48" r="2.95"/><circle class="cls-48" cx="64.46" cy="22.48" r="2.9"/><circle class="cls-49" cx="64.46" cy="22.48" r="2.85"/><circle class="cls-50" cx="64.46" cy="22.48" r="2.8"/><circle class="cls-51" cx="64.46" cy="22.48" r="2.74"/><circle class="cls-52" cx="64.46" cy="22.48" r="2.69"/><circle class="cls-53" cx="64.46" cy="22.48" r="2.64"/><circle class="cls-54" cx="64.46" cy="22.48" r="2.59"/><circle class="cls-55" cx="64.46" cy="22.48" r="2.54"/><circle class="cls-56" cx="64.46" cy="22.48" r="2.49"/><circle class="cls-57" cx="64.46" cy="22.48" r="2.44"/><circle class="cls-58" cx="64.46" cy="22.48" r="2.39"/><circle class="cls-59" cx="64.46" cy="22.48" r="2.34"/><circle class="cls-60" cx="64.46" cy="22.48" r="2.29"/><circle class="cls-61" cx="64.46" cy="22.48" r="2.24"/><circle class="cls-62" cx="64.46" cy="22.48" r="2.19"/><circle class="cls-63" cx="64.46" cy="22.48" r="2.13"/><circle class="cls-64" cx="64.46" cy="22.48" r="2.08"/><circle class="cls-65" cx="64.46" cy="22.48" r="2.03"/><circle class="cls-66" cx="64.46" cy="22.48" r="1.98"/><circle class="cls-67" cx="64.46" cy="22.48" r="1.93"/><circle class="cls-68" cx="64.46" cy="22.48" r="1.88"/><circle class="cls-69" cx="64.46" cy="22.48" r="1.83"/><circle class="cls-70" cx="64.46" cy="22.48" r="1.78"/><circle class="cls-71" cx="64.46" cy="22.48" r="1.73"/><circle class="cls-72" cx="64.46" cy="22.48" r="1.68"/><circle class="cls-73" cx="64.46" cy="22.48" r="1.63"/><circle class="cls-74" cx="64.46" cy="22.48" r="1.58"/><circle class="cls-75" cx="64.46" cy="22.48" r="1.52"/><circle class="cls-76" cx="64.46" cy="22.48" r="1.47"/><circle class="cls-77" cx="64.46" cy="22.48" r="1.42"/><circle class="cls-78" cx="64.46" cy="22.48" r="1.37"/><circle class="cls-79" cx="64.46" cy="22.48" r="1.32"/><circle class="cls-80" cx="64.46" cy="22.48" r="1.27"/><circle class="cls-81" cx="64.46" cy="22.48" r="1.22"/><circle class="cls-82" cx="64.46" cy="22.48" r="1.17"/><circle class="cls-83" cx="64.46" cy="22.48" r="1.12"/><circle class="cls-84" cx="64.46" cy="22.48" r="1.07"/><circle class="cls-85" cx="64.46" cy="22.48" r="1.02"/><circle class="cls-86" cx="64.46" cy="22.48" r="0.97"/><circle class="cls-86" cx="64.46" cy="22.48" r="0.91"/><circle class="cls-87" cx="64.46" cy="22.48" r="0.86"/><circle class="cls-88" cx="64.46" cy="22.48" r="0.81"/><circle class="cls-89" cx="64.46" cy="22.48" r="0.76"/><circle class="cls-90" cx="64.46" cy="22.48" r="0.71"/><circle class="cls-91" cx="64.46" cy="22.48" r="0.66"/><circle class="cls-92" cx="64.46" cy="22.48" r="0.61"/><circle class="cls-93" cx="64.46" cy="22.48" r="0.56"/><circle class="cls-94" cx="64.46" cy="22.48" r="0.51"/><circle class="cls-95" cx="64.46" cy="22.48" r="0.46"/><circle class="cls-96" cx="64.46" cy="22.48" r="0.41"/><circle class="cls-96" cx="64.46" cy="22.48" r="0.36"/><circle class="cls-97" cx="64.46" cy="22.48" r="0.3"/><circle class="cls-98" cx="64.46" cy="22.48" r="0.25"/><circle class="cls-98" cx="64.46" cy="22.48" r="0.2"/><circle class="cls-99" cx="64.46" cy="22.48" r="0.15"/><circle class="cls-100" cx="64.46" cy="22.48" r="0.1"/><circle class="cls-100" cx="64.46" cy="22.48" r="0.05"/></g><g class="cls-103"><rect class="cls-3" x="48" y="28.15" width="4.93" height="5.31"/><circle class="cls-3" cx="50.47" cy="30.81" r="1.93"/><circle class="cls-4" cx="50.47" cy="30.81" r="1.91"/><circle class="cls-5" cx="50.47" cy="30.81" r="1.89"/><circle class="cls-6" cx="50.47" cy="30.81" r="1.87"/><circle class="cls-7" cx="50.47" cy="30.81" r="1.85"/><circle class="cls-8" cx="50.47" cy="30.81" r="1.83"/><circle class="cls-9" cx="50.47" cy="30.81" r="1.81"/><circle class="cls-10" cx="50.47" cy="30.81" r="1.79"/><circle class="cls-11" cx="50.47" cy="30.81" r="1.78"/><circle class="cls-12" cx="50.47" cy="30.81" r="1.76"/><circle class="cls-13" cx="50.47" cy="30.81" r="1.74"/><circle class="cls-14" cx="50.47" cy="30.81" r="1.72"/><circle class="cls-15" cx="50.47" cy="30.81" r="1.7"/><circle class="cls-16" cx="50.47" cy="30.81" r="1.68"/><circle class="cls-17" cx="50.47" cy="30.81" r="1.66"/><circle class="cls-18" cx="50.47" cy="30.81" r="1.64"/><circle class="cls-19" cx="50.47" cy="30.81" r="1.62"/><circle class="cls-20" cx="50.47" cy="30.81" r="1.61"/><circle class="cls-21" cx="50.47" cy="30.81" r="1.59"/><circle class="cls-22" cx="50.47" cy="30.81" r="1.57"/><circle class="cls-23" cx="50.47" cy="30.81" r="1.55"/><circle class="cls-24" cx="50.47" cy="30.81" r="1.53"/><circle class="cls-25" cx="50.47" cy="30.81" r="1.51"/><circle class="cls-26" cx="50.47" cy="30.81" r="1.49"/><circle class="cls-27" cx="50.47" cy="30.81" r="1.47"/><circle class="cls-28" cx="50.47" cy="30.81" r="1.45"/><circle class="cls-29" cx="50.47" cy="30.81" r="1.44"/><circle class="cls-30" cx="50.47" cy="30.81" r="1.42"/><circle class="cls-31" cx="50.47" cy="30.81" r="1.4"/><circle class="cls-32" cx="50.47" cy="30.81" r="1.38"/><circle class="cls-33" cx="50.47" cy="30.81" r="1.36"/><circle class="cls-34" cx="50.47" cy="30.81" r="1.34"/><circle class="cls-35" cx="50.47" cy="30.81" r="1.32"/><circle class="cls-36" cx="50.47" cy="30.81" r="1.3"/><circle class="cls-37" cx="50.47" cy="30.81" r="1.28"/><circle class="cls-38" cx="50.47" cy="30.81" r="1.27"/><circle class="cls-39" cx="50.47" cy="30.81" r="1.25"/><circle class="cls-40" cx="50.47" cy="30.81" r="1.23"/><circle class="cls-41" cx="50.47" cy="30.81" r="1.21"/><circle class="cls-42" cx="50.47" cy="30.81" r="1.19"/><circle class="cls-43" cx="50.47" cy="30.81" r="1.17"/><circle class="cls-44" cx="50.47" cy="30.81" r="1.15"/><circle class="cls-45" cx="50.47" cy="30.81" r="1.13"/><circle class="cls-46" cx="50.47" cy="30.81" r="1.11"/><circle class="cls-47" cx="50.47" cy="30.81" r="1.1"/><circle class="cls-48" cx="50.47" cy="30.81" r="1.08"/><circle class="cls-49" cx="50.47" cy="30.81" r="1.06"/><circle class="cls-50" cx="50.47" cy="30.81" r="1.04"/><circle class="cls-51" cx="50.47" cy="30.81" r="1.02"/><circle class="cls-52" cx="50.47" cy="30.81" r="1"/><circle class="cls-53" cx="50.47" cy="30.81" r="0.98"/><circle class="cls-54" cx="50.47" cy="30.81" r="0.96"/><circle class="cls-55" cx="50.47" cy="30.81" r="0.94"/><circle class="cls-56" cx="50.47" cy="30.81" r="0.93"/><circle class="cls-57" cx="50.47" cy="30.81" r="0.91"/><circle class="cls-58" cx="50.47" cy="30.81" r="0.89"/><circle class="cls-59" cx="50.47" cy="30.81" r="0.87"/><circle class="cls-60" cx="50.47" cy="30.81" r="0.85"/><circle class="cls-61" cx="50.47" cy="30.81" r="0.83"/><circle class="cls-62" cx="50.47" cy="30.81" r="0.81"/><circle class="cls-63" cx="50.47" cy="30.81" r="0.79"/><circle class="cls-64" cx="50.47" cy="30.81" r="0.77"/><circle class="cls-65" cx="50.47" cy="30.81" r="0.76"/><circle class="cls-66" cx="50.47" cy="30.81" r="0.74"/><circle class="cls-67" cx="50.47" cy="30.81" r="0.72"/><circle class="cls-68" cx="50.47" cy="30.81" r="0.7"/><circle class="cls-69" cx="50.47" cy="30.81" r="0.68"/><circle class="cls-70" cx="50.47" cy="30.81" r="0.66"/><circle class="cls-71" cx="50.47" cy="30.81" r="0.64"/><circle class="cls-72" cx="50.47" cy="30.81" r="0.62"/><circle class="cls-73" cx="50.47" cy="30.81" r="0.6"/><circle class="cls-74" cx="50.47" cy="30.81" r="0.59"/><circle class="cls-75" cx="50.47" cy="30.81" r="0.57"/><circle class="cls-76" cx="50.47" cy="30.81" r="0.55"/><circle class="cls-77" cx="50.47" cy="30.81" r="0.53"/><circle class="cls-78" cx="50.47" cy="30.81" r="0.51"/><circle class="cls-79" cx="50.47" cy="30.81" r="0.49"/><circle class="cls-80" cx="50.47" cy="30.81" r="0.47"/><circle class="cls-81" cx="50.47" cy="30.81" r="0.45"/><circle class="cls-82" cx="50.47" cy="30.81" r="0.43"/><circle class="cls-83" cx="50.47" cy="30.81" r="0.42"/><circle class="cls-84" cx="50.47" cy="30.81" r="0.4"/><circle class="cls-85" cx="50.47" cy="30.81" r="0.38"/><circle class="cls-86" cx="50.47" cy="30.81" r="0.36"/><circle class="cls-86" cx="50.47" cy="30.81" r="0.34"/><circle class="cls-87" cx="50.47" cy="30.81" r="0.32"/><circle class="cls-88" cx="50.47" cy="30.81" r="0.3"/><circle class="cls-89" cx="50.47" cy="30.81" r="0.28"/><circle class="cls-90" cx="50.47" cy="30.81" r="0.26"/><circle class="cls-91" cx="50.47" cy="30.81" r="0.25"/><circle class="cls-92" cx="50.47" cy="30.81" r="0.23"/><circle class="cls-93" cx="50.47" cy="30.81" r="0.21"/><circle class="cls-94" cx="50.47" cy="30.81" r="0.19"/><circle class="cls-95" cx="50.47" cy="30.81" r="0.17"/><circle class="cls-96" cx="50.47" cy="30.81" r="0.15"/><circle class="cls-96" cx="50.47" cy="30.81" r="0.13"/><circle class="cls-97" cx="50.47" cy="30.81" r="0.11"/><circle class="cls-98" cx="50.47" cy="30.81" r="0.09"/><circle class="cls-98" cx="50.47" cy="30.81" r="0.08"/><path class="cls-99" d="M50.52,30.84a.05.05,0,0,1-.08,0,.06.06,0,0,1,0-.07.07.07,0,0,1,.08,0A.06.06,0,0,1,50.52,30.84Z"/><path class="cls-100" d="M50.5,30.83a0,0,0,0,1,0,0s0,0,0-.06a0,0,0,0,1,.05,0S50.51,30.81,50.5,30.83Z"/><path class="cls-100" d="M50.49,30.82s0,0,0,0,0,0,0,0a0,0,0,0,1,0,0S50.49,30.81,50.49,30.82Z"/></g><g class="cls-104"><rect class="cls-3" x="46.82" y="22.59" width="1.25" height="8.89"/><path class="cls-3" d="M50.1,28.61a3.15,3.15,0,0,1-4.3,1.15H46v-4.3H44.65A3.15,3.15,0,0,1,49,24.31h-.09v4.3Z"/><path class="cls-4" d="M50.07,28.59a3.11,3.11,0,0,1-4.25,1.14H46V25.48H44.68a3.11,3.11,0,0,1,4.25-1.14h-.07v4.25Z"/><path class="cls-5" d="M50,28.58a3.09,3.09,0,0,1-4.21,1.13H46V25.49H44.7a3.1,3.1,0,0,1,4.22-1.13h-.06v4.22Z"/><path class="cls-6" d="M50,28.56a3.06,3.06,0,0,1-4.17,1.12H46V25.51H44.73a3.06,3.06,0,0,1,4.17-1.12h0v4.17Z"/><path class="cls-7" d="M50,28.55a3,3,0,0,1-4.13,1.1H46V25.52H44.76a3,3,0,0,1,4.12-1.1h0v4.13Z"/><path class="cls-8" d="M50,28.53a3,3,0,0,1-4.08,1.1H46V25.54H44.78a3,3,0,0,1,4.09-1.1h0v4.09Z"/><path class="cls-9" d="M49.94,28.51a3,3,0,0,1-4,1.09H46v-4H44.81a3,3,0,0,1,5.13,3Z"/><path class="cls-10" d="M49.91,28.5a2.93,2.93,0,0,1-4,1.07H46v-4h-1.2a2.93,2.93,0,0,1,5.07,2.93Z"/><path class="cls-11" d="M49.88,28.48a2.88,2.88,0,0,1-4,1.06H46V25.59H44.86a2.9,2.9,0,1,1,5,2.89Z"/><path class="cls-12" d="M49.86,28.47a2.87,2.87,0,0,1-3.92,1.05H46V25.6H44.89a2.87,2.87,0,1,1,5,2.87Z"/><path class="cls-13" d="M49.83,28.45a2.83,2.83,0,0,1-3.87,1H46V25.62H44.92a2.83,2.83,0,1,1,4.91,2.83Z"/><path class="cls-14" d="M49.8,28.44a2.8,2.8,0,0,1-3.83,1H46V25.63h-1.1a2.81,2.81,0,1,1,4.86,2.81Z"/><path class="cls-15" d="M49.78,28.42a2.78,2.78,0,0,1-3.79,1h0V25.65H45a2.78,2.78,0,0,1,4.81,2.77Z"/><path class="cls-16" d="M49.75,28.41a2.75,2.75,0,0,1-3.75,1h0V25.66H45a2.74,2.74,0,0,1,4.75,2.75Z"/><path class="cls-17" d="M49.72,28.39a2.7,2.7,0,0,1-3.7,1h0v-3.7H45a2.71,2.71,0,1,1,4.7,2.71Z"/><path class="cls-18" d="M49.7,28.38a2.69,2.69,0,0,1-3.67,1h0V25.69h-1a2.69,2.69,0,0,1,4.65,2.69Z"/><circle class="cls-19" cx="47.37" cy="27.03" r="2.65"/><circle class="cls-20" cx="47.37" cy="27.03" r="2.62"/><circle class="cls-21" cx="47.37" cy="27.03" r="2.59"/><circle class="cls-22" cx="47.37" cy="27.03" r="2.56"/><circle class="cls-23" cx="47.37" cy="27.03" r="2.53"/><circle class="cls-24" cx="47.37" cy="27.03" r="2.5"/><circle class="cls-25" cx="47.37" cy="27.03" r="2.47"/><circle class="cls-26" cx="47.37" cy="27.03" r="2.44"/><circle class="cls-27" cx="47.37" cy="27.03" r="2.4"/><circle class="cls-28" cx="47.37" cy="27.03" r="2.37"/><circle class="cls-29" cx="47.37" cy="27.03" r="2.34"/><circle class="cls-30" cx="47.37" cy="27.03" r="2.31"/><circle class="cls-31" cx="47.37" cy="27.03" r="2.28"/><circle class="cls-32" cx="47.37" cy="27.03" r="2.25"/><circle class="cls-33" cx="47.37" cy="27.03" r="2.22"/><circle class="cls-34" cx="47.37" cy="27.03" r="2.19"/><circle class="cls-35" cx="47.37" cy="27.03" r="2.16"/><circle class="cls-36" cx="47.37" cy="27.03" r="2.13"/><circle class="cls-37" cx="47.37" cy="27.03" r="2.1"/><circle class="cls-38" cx="47.37" cy="27.03" r="2.07"/><circle class="cls-39" cx="47.37" cy="27.03" r="2.03"/><circle class="cls-40" cx="47.37" cy="27.03" r="2"/><circle class="cls-41" cx="47.37" cy="27.03" r="1.97"/><circle class="cls-42" cx="47.37" cy="27.03" r="1.94"/><circle class="cls-43" cx="47.37" cy="27.03" r="1.91"/><circle class="cls-44" cx="47.37" cy="27.03" r="1.88"/><circle class="cls-45" cx="47.37" cy="27.03" r="1.85"/><circle class="cls-46" cx="47.37" cy="27.03" r="1.82"/><circle class="cls-47" cx="47.37" cy="27.03" r="1.79"/><circle class="cls-48" cx="47.37" cy="27.03" r="1.76"/><circle class="cls-49" cx="47.37" cy="27.03" r="1.73"/><circle class="cls-50" cx="47.37" cy="27.03" r="1.7"/><circle class="cls-51" cx="47.37" cy="27.03" r="1.66"/><circle class="cls-52" cx="47.37" cy="27.03" r="1.63"/><circle class="cls-53" cx="47.37" cy="27.03" r="1.6"/><circle class="cls-54" cx="47.37" cy="27.03" r="1.57"/><circle class="cls-55" cx="47.37" cy="27.03" r="1.54"/><circle class="cls-56" cx="47.37" cy="27.03" r="1.51"/><circle class="cls-57" cx="47.37" cy="27.03" r="1.48"/><circle class="cls-58" cx="47.37" cy="27.03" r="1.45"/><circle class="cls-59" cx="47.37" cy="27.03" r="1.42"/><circle class="cls-60" cx="47.37" cy="27.03" r="1.39"/><circle class="cls-61" cx="47.37" cy="27.03" r="1.36"/><circle class="cls-62" cx="47.37" cy="27.03" r="1.33"/><circle class="cls-63" cx="47.37" cy="27.03" r="1.29"/><circle class="cls-64" cx="47.37" cy="27.03" r="1.26"/><circle class="cls-65" cx="47.37" cy="27.03" r="1.23"/><circle class="cls-66" cx="47.37" cy="27.03" r="1.2"/><circle class="cls-67" cx="47.37" cy="27.03" r="1.17"/><circle class="cls-68" cx="47.37" cy="27.03" r="1.14"/><circle class="cls-69" cx="47.37" cy="27.03" r="1.11"/><circle class="cls-70" cx="47.37" cy="27.03" r="1.08"/><circle class="cls-71" cx="47.37" cy="27.03" r="1.05"/><circle class="cls-72" cx="47.37" cy="27.03" r="1.02"/><circle class="cls-73" cx="47.37" cy="27.03" r="0.99"/><circle class="cls-74" cx="47.37" cy="27.03" r="0.96"/><circle class="cls-75" cx="47.37" cy="27.03" r="0.92"/><circle class="cls-76" cx="47.37" cy="27.03" r="0.89"/><circle class="cls-77" cx="47.37" cy="27.03" r="0.86"/><circle class="cls-78" cx="47.37" cy="27.03" r="0.83"/><circle class="cls-79" cx="47.37" cy="27.03" r="0.8"/><circle class="cls-80" cx="47.37" cy="27.03" r="0.77"/><circle class="cls-81" cx="47.37" cy="27.03" r="0.74"/><circle class="cls-82" cx="47.37" cy="27.03" r="0.71"/><circle class="cls-83" cx="47.37" cy="27.03" r="0.68"/><circle class="cls-84" cx="47.37" cy="27.03" r="0.65"/><circle class="cls-85" cx="47.37" cy="27.03" r="0.62"/><circle class="cls-86" cx="47.37" cy="27.03" r="0.59"/><circle class="cls-86" cx="47.37" cy="27.03" r="0.55"/><circle class="cls-87" cx="47.37" cy="27.03" r="0.52"/><circle class="cls-88" cx="47.37" cy="27.03" r="0.49"/><circle class="cls-89" cx="47.37" cy="27.03" r="0.46"/><circle class="cls-90" cx="47.37" cy="27.03" r="0.43"/><circle class="cls-91" cx="47.37" cy="27.03" r="0.4"/><circle class="cls-92" cx="47.37" cy="27.03" r="0.37"/><circle class="cls-93" cx="47.37" cy="27.03" r="0.34"/><circle class="cls-94" cx="47.37" cy="27.03" r="0.31"/><circle class="cls-95" cx="47.37" cy="27.03" r="0.28"/><circle class="cls-96" cx="47.37" cy="27.03" r="0.25"/><circle class="cls-96" cx="47.37" cy="27.03" r="0.22"/><circle class="cls-97" cx="47.37" cy="27.03" r="0.18"/><circle class="cls-98" cx="47.37" cy="27.03" r="0.15"/><circle class="cls-98" cx="47.37" cy="27.03" r="0.12"/><circle class="cls-99" cx="47.37" cy="27.03" r="0.09"/><circle class="cls-100" cx="47.37" cy="27.03" r="0.06"/><circle class="cls-100" cx="47.37" cy="27.03" r="0.03"/></g><g class="cls-105"><rect class="cls-3" x="51.4" y="29.03" width="7.84" height="5.09"/><circle class="cls-3" cx="55.32" cy="31.62" r="3.14"/><circle class="cls-4" cx="55.32" cy="31.62" r="3.11"/><circle class="cls-5" cx="55.32" cy="31.62" r="3.08"/><circle class="cls-6" cx="55.32" cy="31.62" r="3.05"/><circle class="cls-7" cx="55.32" cy="31.62" r="3.02"/><circle class="cls-8" cx="55.32" cy="31.62" r="2.99"/><circle class="cls-9" cx="55.32" cy="31.62" r="2.96"/><circle class="cls-10" cx="55.32" cy="31.62" r="2.93"/><circle class="cls-11" cx="55.32" cy="31.62" r="2.9"/><circle class="cls-12" cx="55.32" cy="31.62" r="2.87"/><circle class="cls-13" cx="55.32" cy="31.62" r="2.84"/><circle class="cls-14" cx="55.32" cy="31.62" r="2.81"/><circle class="cls-15" cx="55.32" cy="31.62" r="2.77"/><circle class="cls-16" cx="55.32" cy="31.62" r="2.74"/><circle class="cls-17" cx="55.32" cy="31.62" r="2.71"/><circle class="cls-18" cx="55.32" cy="31.62" r="2.68"/><circle class="cls-19" cx="55.32" cy="31.62" r="2.65"/><circle class="cls-20" cx="55.32" cy="31.62" r="2.62"/><circle class="cls-21" cx="55.32" cy="31.62" r="2.59"/><circle class="cls-22" cx="55.32" cy="31.62" r="2.56"/><circle class="cls-23" cx="55.32" cy="31.62" r="2.53"/><circle class="cls-24" cx="55.32" cy="31.62" r="2.5"/><circle class="cls-25" cx="55.32" cy="31.62" r="2.47"/><circle class="cls-26" cx="55.32" cy="31.62" r="2.44"/><circle class="cls-27" cx="55.32" cy="31.62" r="2.4"/><circle class="cls-28" cx="55.32" cy="31.62" r="2.37"/><circle class="cls-29" cx="55.32" cy="31.62" r="2.34"/><circle class="cls-30" cx="55.32" cy="31.62" r="2.31"/><circle class="cls-31" cx="55.32" cy="31.62" r="2.28"/><circle class="cls-32" cx="55.32" cy="31.62" r="2.25"/><circle class="cls-33" cx="55.32" cy="31.62" r="2.22"/><circle class="cls-34" cx="55.32" cy="31.62" r="2.19"/><circle class="cls-35" cx="55.32" cy="31.62" r="2.16"/><circle class="cls-36" cx="55.32" cy="31.62" r="2.13"/><circle class="cls-37" cx="55.32" cy="31.62" r="2.1"/><circle class="cls-38" cx="55.32" cy="31.62" r="2.07"/><circle class="cls-39" cx="55.32" cy="31.62" r="2.03"/><circle class="cls-40" cx="55.32" cy="31.62" r="2"/><circle class="cls-41" cx="55.32" cy="31.62" r="1.97"/><circle class="cls-42" cx="55.32" cy="31.62" r="1.94"/><circle class="cls-43" cx="55.32" cy="31.62" r="1.91"/><circle class="cls-44" cx="55.32" cy="31.62" r="1.88"/><circle class="cls-45" cx="55.32" cy="31.62" r="1.85"/><circle class="cls-46" cx="55.32" cy="31.62" r="1.82"/><circle class="cls-47" cx="55.32" cy="31.62" r="1.79"/><circle class="cls-48" cx="55.32" cy="31.62" r="1.76"/><circle class="cls-49" cx="55.32" cy="31.62" r="1.73"/><circle class="cls-50" cx="55.32" cy="31.62" r="1.7"/><circle class="cls-51" cx="55.32" cy="31.62" r="1.66"/><circle class="cls-52" cx="55.32" cy="31.62" r="1.63"/><circle class="cls-53" cx="55.32" cy="31.62" r="1.6"/><circle class="cls-54" cx="55.32" cy="31.62" r="1.57"/><circle class="cls-55" cx="55.32" cy="31.62" r="1.54"/><circle class="cls-56" cx="55.32" cy="31.62" r="1.51"/><circle class="cls-57" cx="55.32" cy="31.62" r="1.48"/><circle class="cls-58" cx="55.32" cy="31.62" r="1.45"/><circle class="cls-59" cx="55.32" cy="31.62" r="1.42"/><circle class="cls-60" cx="55.32" cy="31.62" r="1.39"/><circle class="cls-61" cx="55.32" cy="31.62" r="1.36"/><circle class="cls-62" cx="55.32" cy="31.62" r="1.33"/><circle class="cls-63" cx="55.32" cy="31.62" r="1.29"/><circle class="cls-64" cx="55.32" cy="31.62" r="1.26"/><circle class="cls-65" cx="55.32" cy="31.62" r="1.23"/><circle class="cls-66" cx="55.32" cy="31.62" r="1.2"/><circle class="cls-67" cx="55.32" cy="31.62" r="1.17"/><circle class="cls-68" cx="55.32" cy="31.62" r="1.14"/><circle class="cls-69" cx="55.32" cy="31.62" r="1.11"/><circle class="cls-70" cx="55.32" cy="31.62" r="1.08"/><circle class="cls-71" cx="55.32" cy="31.62" r="1.05"/><circle class="cls-72" cx="55.32" cy="31.62" r="1.02"/><circle class="cls-73" cx="55.32" cy="31.62" r="0.99"/><circle class="cls-74" cx="55.32" cy="31.62" r="0.96"/><circle class="cls-75" cx="55.32" cy="31.62" r="0.92"/><circle class="cls-76" cx="55.32" cy="31.62" r="0.89"/><circle class="cls-77" cx="55.32" cy="31.62" r="0.86"/><circle class="cls-78" cx="55.32" cy="31.62" r="0.83"/><circle class="cls-79" cx="55.32" cy="31.62" r="0.8"/><circle class="cls-80" cx="55.32" cy="31.62" r="0.77"/><circle class="cls-81" cx="55.32" cy="31.62" r="0.74"/><circle class="cls-82" cx="55.32" cy="31.62" r="0.71"/><circle class="cls-83" cx="55.32" cy="31.62" r="0.68"/><circle class="cls-84" cx="55.32" cy="31.62" r="0.65"/><circle class="cls-85" cx="55.32" cy="31.62" r="0.62"/><circle class="cls-86" cx="55.32" cy="31.62" r="0.59"/><circle class="cls-86" cx="55.32" cy="31.62" r="0.55"/><circle class="cls-87" cx="55.32" cy="31.62" r="0.52"/><circle class="cls-88" cx="55.32" cy="31.62" r="0.49"/><circle class="cls-89" cx="55.32" cy="31.62" r="0.46"/><circle class="cls-90" cx="55.32" cy="31.62" r="0.43"/><circle class="cls-91" cx="55.32" cy="31.62" r="0.4"/><circle class="cls-92" cx="55.32" cy="31.62" r="0.37"/><circle class="cls-93" cx="55.32" cy="31.62" r="0.34"/><circle class="cls-94" cx="55.32" cy="31.62" r="0.31"/><circle class="cls-95" cx="55.32" cy="31.62" r="0.28"/><circle class="cls-96" cx="55.32" cy="31.62" r="0.25"/><circle class="cls-96" cx="55.32" cy="31.62" r="0.22"/><circle class="cls-97" cx="55.32" cy="31.62" r="0.18"/><circle class="cls-98" cx="55.32" cy="31.62" r="0.15"/><circle class="cls-98" cx="55.32" cy="31.62" r="0.12"/><circle class="cls-99" cx="55.32" cy="31.62" r="0.09"/><circle class="cls-100" cx="55.32" cy="31.62" r="0.06"/><circle class="cls-100" cx="55.32" cy="31.62" r="0.03"/></g></g></svg>