<svg id="Layer_1" data-name="Layer 1" xmlns="http://www.w3.org/2000/svg" xmlns:xlink="http://www.w3.org/1999/xlink" viewBox="0 0 72 72"><defs><style>.cls-1{fill:none;}.cls-2{clip-path:url(#clip-path);}.cls-3{fill:#ffb40d;}.cls-4{fill:#ffb40e;}.cls-5{fill:#ffb50f;}.cls-6{fill:#ffb511;}.cls-7{fill:#ffb512;}.cls-8{fill:#ffb613;}.cls-9{fill:#ffb614;}.cls-10{fill:#ffb715;}.cls-11{fill:#ffb716;}.cls-12{fill:#ffb718;}.cls-13{fill:#ffb819;}.cls-14{fill:#ffb81a;}.cls-15{fill:#ffb81b;}.cls-16{fill:#ffb91c;}.cls-17{fill:#ffb91d;}.cls-18{fill:#ffba1f;}.cls-19{fill:#ffba20;}.cls-20{fill:#ffba21;}.cls-21{fill:#fb2;}.cls-22{fill:#ffbb23;}.cls-23{fill:#ffbb24;}.cls-24{fill:#ffbc25;}.cls-25{fill:#ffbc27;}.cls-26{fill:#ffbc28;}.cls-27{fill:#ffbd29;}.cls-28{fill:#ffbd2a;}.cls-29{fill:#ffbd2b;}.cls-30{fill:#ffbe2c;}.cls-31{fill:#ffbe2d;}.cls-32{fill:#ffbf2e;}.cls-33{fill:#ffbf30;}.cls-34{fill:#ffbf31;}.cls-35{fill:#ffc032;}.cls-36{fill:#ffc033;}.cls-37{fill:#ffc034;}.cls-38{fill:#ffc135;}.cls-39{fill:#ffc136;}.cls-40{fill:#ffc137;}.cls-41{fill:#ffc238;}.cls-42{fill:#ffc23a;}.cls-43{fill:#ffc23b;}.cls-44{fill:#ffc33c;}.cls-45{fill:#ffc33d;}.cls-46{fill:#ffc33e;}.cls-47{fill:#ffc43f;}.cls-48{fill:#ffc440;}.cls-49{fill:#ffc441;}.cls-50{fill:#ffc542;}.cls-51{fill:#ffc543;}.cls-52{fill:#ffc544;}.cls-53{fill:#ffc645;}.cls-54{fill:#ffc646;}.cls-55{fill:#ffc647;}.cls-56{fill:#ffc748;}.cls-57{fill:#ffc74a;}.cls-58{fill:#ffc74b;}.cls-59{fill:#ffc84c;}.cls-60{fill:#ffc84d;}.cls-61{fill:#ffc84e;}.cls-62{fill:#ffc94f;}.cls-63{fill:#ffc950;}.cls-64{fill:#ffc951;}.cls-65{fill:#ffca52;}.cls-66{fill:#ffca53;}.cls-67{fill:#ffca54;}.cls-68{fill:#ffca55;}.cls-69{fill:#ffcb56;}.cls-70{fill:#ffcb57;}.cls-71{fill:#ffcb58;}.cls-72{fill:#ffcc59;}.cls-73{fill:#ffcc5a;}.cls-74{fill:#ffcc5b;}.cls-75{fill:#ffcd5b;}.cls-76{fill:#ffcd5c;}.cls-77{fill:#ffcd5d;}.cls-78{fill:#ffce5e;}.cls-79{fill:#ffce5f;}.cls-80{fill:#ffce60;}.cls-81{fill:#ffce61;}.cls-82{fill:#ffcf62;}.cls-83{fill:#ffcf63;}.cls-84{fill:#ffcf64;}.cls-85{fill:#ffd065;}.cls-86{fill:#ffd066;}.cls-87{fill:#ffd067;}.cls-88{fill:#ffd168;}.cls-89{fill:#ffd169;}.cls-90{fill:#ffd16a;}.cls-91{fill:#ffd16b;}.cls-92{fill:#ffd26b;}.cls-93{fill:#ffd26c;}.cls-94{fill:#ffd26d;}.cls-95{fill:#ffd26e;}.cls-96{fill:#ffd36f;}.cls-97{fill:#ffd370;}.cls-98{fill:#ffd371;}.cls-99{fill:#ffd472;}.cls-100{fill:#ffd473;}.cls-101{clip-path:url(#clip-path-2);}</style><clipPath id="clip-path"><circle class="cls-1" cx="38.58" cy="20.92" r="14.07"/></clipPath><clipPath id="clip-path-2"><path class="cls-1" d="M46,39.93H31.17a17.32,17.32,0,0,0-17.3,17.31v4.94a2.46,2.46,0,0,0,2.47,2.47H60.83a2.46,2.46,0,0,0,2.47-2.47V57.24A17.32,17.32,0,0,0,46,39.93Z"/></clipPath></defs><g class="cls-2"><rect class="cls-3" x="24.51" y="6.84" width="28.15" height="28.15"/><circle class="cls-3" cx="38.58" cy="20.92" r="14.07"/><circle class="cls-4" cx="38.58" cy="20.92" r="13.94"/><circle class="cls-5" cx="38.58" cy="20.92" r="13.8"/><circle class="cls-6" cx="38.58" cy="20.92" r="13.66"/><circle class="cls-7" cx="38.58" cy="20.92" r="13.52"/><circle class="cls-8" cx="38.58" cy="20.92" r="13.38"/><circle class="cls-9" cx="38.58" cy="20.92" r="13.25"/><circle class="cls-10" cx="38.58" cy="20.92" r="13.11"/><circle class="cls-11" cx="38.58" cy="20.92" r="12.97"/><circle class="cls-12" cx="38.58" cy="20.92" r="12.83"/><circle class="cls-13" cx="38.58" cy="20.92" r="12.69"/><circle class="cls-14" cx="38.58" cy="20.92" r="12.56"/><circle class="cls-15" cx="38.58" cy="20.92" r="12.42"/><circle class="cls-16" cx="38.58" cy="20.92" r="12.28"/><circle class="cls-17" cx="38.58" cy="20.92" r="12.14"/><circle class="cls-18" cx="38.58" cy="20.92" r="12"/><circle class="cls-19" cx="38.58" cy="20.92" r="11.87"/><circle class="cls-20" cx="38.58" cy="20.92" r="11.73"/><circle class="cls-21" cx="38.58" cy="20.92" r="11.59"/><circle class="cls-22" cx="38.58" cy="20.92" r="11.45"/><circle class="cls-23" cx="38.58" cy="20.92" r="11.31"/><circle class="cls-24" cx="38.58" cy="20.92" r="11.18"/><circle class="cls-25" cx="38.58" cy="20.92" r="11.04"/><circle class="cls-26" cx="38.58" cy="20.92" r="10.9"/><circle class="cls-27" cx="38.58" cy="20.92" r="10.76"/><circle class="cls-28" cx="38.58" cy="20.92" r="10.62"/><circle class="cls-29" cx="38.58" cy="20.92" r="10.49"/><circle class="cls-30" cx="38.58" cy="20.92" r="10.35"/><circle class="cls-31" cx="38.58" cy="20.92" r="10.21"/><circle class="cls-32" cx="38.58" cy="20.92" r="10.07"/><circle class="cls-33" cx="38.58" cy="20.92" r="9.93"/><circle class="cls-34" cx="38.58" cy="20.92" r="9.8"/><circle class="cls-35" cx="38.58" cy="20.92" r="9.66"/><circle class="cls-36" cx="38.58" cy="20.92" r="9.52"/><circle class="cls-37" cx="38.58" cy="20.92" r="9.38"/><circle class="cls-38" cx="38.58" cy="20.92" r="9.24"/><circle class="cls-39" cx="38.58" cy="20.92" r="9.11"/><circle class="cls-40" cx="38.58" cy="20.92" r="8.97"/><circle class="cls-41" cx="38.58" cy="20.92" r="8.83"/><circle class="cls-42" cx="38.58" cy="20.92" r="8.69"/><circle class="cls-43" cx="38.58" cy="20.92" r="8.55"/><circle class="cls-44" cx="38.58" cy="20.92" r="8.42"/><circle class="cls-45" cx="38.58" cy="20.92" r="8.28"/><circle class="cls-46" cx="38.58" cy="20.92" r="8.14"/><circle class="cls-47" cx="38.58" cy="20.92" r="8"/><circle class="cls-48" cx="38.58" cy="20.92" r="7.86"/><circle class="cls-49" cx="38.58" cy="20.92" r="7.73"/><circle class="cls-50" cx="38.58" cy="20.92" r="7.59"/><circle class="cls-51" cx="38.58" cy="20.92" r="7.45"/><circle class="cls-52" cx="38.58" cy="20.92" r="7.31"/><circle class="cls-53" cx="38.58" cy="20.92" r="7.18"/><circle class="cls-54" cx="38.58" cy="20.92" r="7.04"/><circle class="cls-55" cx="38.58" cy="20.92" r="6.9"/><circle class="cls-56" cx="38.58" cy="20.92" r="6.76"/><circle class="cls-57" cx="38.58" cy="20.92" r="6.62"/><circle class="cls-58" cx="38.58" cy="20.92" r="6.49"/><circle class="cls-59" cx="38.58" cy="20.92" r="6.35"/><circle class="cls-60" cx="38.58" cy="20.92" r="6.21"/><circle class="cls-61" cx="38.58" cy="20.92" r="6.07"/><circle class="cls-62" cx="38.58" cy="20.92" r="5.93"/><circle class="cls-63" cx="38.58" cy="20.92" r="5.8"/><circle class="cls-64" cx="38.58" cy="20.92" r="5.66"/><circle class="cls-65" cx="38.58" cy="20.92" r="5.52"/><circle class="cls-66" cx="38.58" cy="20.92" r="5.38"/><circle class="cls-67" cx="38.58" cy="20.92" r="5.24"/><circle class="cls-68" cx="38.58" cy="20.92" r="5.11"/><circle class="cls-69" cx="38.58" cy="20.92" r="4.97"/><circle class="cls-70" cx="38.58" cy="20.92" r="4.83"/><circle class="cls-71" cx="38.58" cy="20.92" r="4.69"/><circle class="cls-72" cx="38.58" cy="20.92" r="4.55"/><circle class="cls-73" cx="38.58" cy="20.92" r="4.42"/><circle class="cls-74" cx="38.58" cy="20.92" r="4.28"/><circle class="cls-75" cx="38.58" cy="20.92" r="4.14"/><circle class="cls-76" cx="38.58" cy="20.92" r="4"/><circle class="cls-77" cx="38.58" cy="20.92" r="3.86"/><circle class="cls-78" cx="38.58" cy="20.92" r="3.73"/><circle class="cls-79" cx="38.58" cy="20.92" r="3.59"/><circle class="cls-80" cx="38.58" cy="20.92" r="3.45"/><circle class="cls-81" cx="38.58" cy="20.92" r="3.31"/><circle class="cls-82" cx="38.58" cy="20.92" r="3.17"/><circle class="cls-83" cx="38.58" cy="20.92" r="3.04"/><circle class="cls-84" cx="38.58" cy="20.92" r="2.9"/><circle class="cls-85" cx="38.58" cy="20.92" r="2.76"/><circle class="cls-86" cx="38.58" cy="20.92" r="2.62"/><circle class="cls-86" cx="38.58" cy="20.92" r="2.48"/><circle class="cls-87" cx="38.58" cy="20.92" r="2.35"/><circle class="cls-88" cx="38.58" cy="20.92" r="2.21"/><circle class="cls-89" cx="38.58" cy="20.92" r="2.07"/><circle class="cls-90" cx="38.58" cy="20.92" r="1.93"/><circle class="cls-91" cx="38.58" cy="20.92" r="1.79"/><circle class="cls-92" cx="38.58" cy="20.92" r="1.66"/><circle class="cls-93" cx="38.58" cy="20.92" r="1.52"/><circle class="cls-94" cx="38.58" cy="20.92" r="1.38"/><circle class="cls-95" cx="38.58" cy="20.92" r="1.24"/><circle class="cls-96" cx="38.58" cy="20.92" r="1.1"/><circle class="cls-96" cx="38.58" cy="20.92" r="0.97"/><circle class="cls-97" cx="38.58" cy="20.92" r="0.83"/><circle class="cls-98" cx="38.58" cy="20.92" r="0.69"/><circle class="cls-98" cx="38.58" cy="20.92" r="0.55"/><circle class="cls-99" cx="38.58" cy="20.92" r="0.41"/><circle class="cls-100" cx="38.58" cy="20.92" r="0.28"/><circle class="cls-100" cx="38.58" cy="20.92" r="0.14"/></g><path d="M38.58,36.69A15.78,15.78,0,1,1,54.36,20.92,15.8,15.8,0,0,1,38.58,36.69Zm0-28.15A12.38,12.38,0,1,0,51,20.92,12.39,12.39,0,0,0,38.58,8.54Z"/><g class="cls-101"><rect class="cls-3" x="13.87" y="39.93" width="49.44" height="24.72"/><circle class="cls-3" cx="38.58" cy="52.29" r="19.54"/><circle class="cls-4" cx="38.58" cy="52.29" r="19.35"/><circle class="cls-5" cx="38.58" cy="52.29" r="19.16"/><circle class="cls-6" cx="38.58" cy="52.29" r="18.97"/><circle class="cls-7" cx="38.58" cy="52.29" r="18.78"/><circle class="cls-8" cx="38.58" cy="52.29" r="18.58"/><circle class="cls-9" cx="38.58" cy="52.29" r="18.39"/><circle class="cls-10" cx="38.58" cy="52.29" r="18.2"/><circle class="cls-11" cx="38.58" cy="52.29" r="18.01"/><circle class="cls-12" cx="38.58" cy="52.29" r="17.82"/><circle class="cls-13" cx="38.58" cy="52.29" r="17.63"/><circle class="cls-14" cx="38.58" cy="52.29" r="17.43"/><circle class="cls-15" cx="38.58" cy="52.29" r="17.24"/><circle class="cls-16" cx="38.58" cy="52.29" r="17.05"/><circle class="cls-17" cx="38.58" cy="52.29" r="16.86"/><circle class="cls-18" cx="38.58" cy="52.29" r="16.67"/><circle class="cls-19" cx="38.58" cy="52.29" r="16.48"/><circle class="cls-20" cx="38.58" cy="52.29" r="16.29"/><circle class="cls-21" cx="38.58" cy="52.29" r="16.09"/><circle class="cls-22" cx="38.58" cy="52.29" r="15.9"/><circle class="cls-23" cx="38.58" cy="52.29" r="15.71"/><circle class="cls-24" cx="38.58" cy="52.29" r="15.52"/><circle class="cls-25" cx="38.58" cy="52.29" r="15.33"/><circle class="cls-26" cx="38.58" cy="52.29" r="15.14"/><circle class="cls-27" cx="38.58" cy="52.29" r="14.94"/><circle class="cls-28" cx="38.58" cy="52.29" r="14.75"/><circle class="cls-29" cx="38.58" cy="52.29" r="14.56"/><circle class="cls-30" cx="38.58" cy="52.29" r="14.37"/><circle class="cls-31" cx="38.58" cy="52.29" r="14.18"/><circle class="cls-32" cx="38.58" cy="52.29" r="13.99"/><circle class="cls-33" cx="38.58" cy="52.29" r="13.79"/><circle class="cls-34" cx="38.58" cy="52.29" r="13.6"/><circle class="cls-35" cx="38.58" cy="52.29" r="13.41"/><circle class="cls-36" cx="38.58" cy="52.29" r="13.22"/><circle class="cls-37" cx="38.58" cy="52.29" r="13.03"/><circle class="cls-38" cx="38.58" cy="52.29" r="12.84"/><circle class="cls-39" cx="38.58" cy="52.29" r="12.65"/><circle class="cls-40" cx="38.58" cy="52.29" r="12.45"/><circle class="cls-41" cx="38.58" cy="52.29" r="12.26"/><circle class="cls-42" cx="38.58" cy="52.29" r="12.07"/><circle class="cls-43" cx="38.58" cy="52.29" r="11.88"/><circle class="cls-44" cx="38.58" cy="52.29" r="11.69"/><circle class="cls-45" cx="38.58" cy="52.29" r="11.5"/><circle class="cls-46" cx="38.58" cy="52.29" r="11.3"/><circle class="cls-47" cx="38.58" cy="52.29" r="11.11"/><circle class="cls-48" cx="38.58" cy="52.29" r="10.92"/><circle class="cls-49" cx="38.58" cy="52.29" r="10.73"/><circle class="cls-50" cx="38.58" cy="52.29" r="10.54"/><circle class="cls-51" cx="38.58" cy="52.29" r="10.35"/><circle class="cls-52" cx="38.58" cy="52.29" r="10.15"/><circle class="cls-53" cx="38.58" cy="52.29" r="9.96"/><circle class="cls-54" cx="38.58" cy="52.29" r="9.77"/><circle class="cls-55" cx="38.58" cy="52.29" r="9.58"/><circle class="cls-56" cx="38.58" cy="52.29" r="9.39"/><circle class="cls-57" cx="38.58" cy="52.29" r="9.2"/><circle class="cls-58" cx="38.58" cy="52.29" r="9"/><circle class="cls-59" cx="38.58" cy="52.29" r="8.81"/><circle class="cls-60" cx="38.58" cy="52.29" r="8.62"/><circle class="cls-61" cx="38.58" cy="52.29" r="8.43"/><circle class="cls-62" cx="38.58" cy="52.29" r="8.24"/><circle class="cls-63" cx="38.58" cy="52.29" r="8.05"/><circle class="cls-64" cx="38.58" cy="52.29" r="7.86"/><circle class="cls-65" cx="38.58" cy="52.29" r="7.66"/><circle class="cls-66" cx="38.58" cy="52.29" r="7.47"/><circle class="cls-67" cx="38.58" cy="52.29" r="7.28"/><circle class="cls-68" cx="38.58" cy="52.29" r="7.09"/><circle class="cls-69" cx="38.58" cy="52.29" r="6.9"/><circle class="cls-70" cx="38.58" cy="52.29" r="6.71"/><circle class="cls-71" cx="38.58" cy="52.29" r="6.51"/><circle class="cls-72" cx="38.58" cy="52.29" r="6.32"/><circle class="cls-73" cx="38.58" cy="52.29" r="6.13"/><circle class="cls-74" cx="38.58" cy="52.29" r="5.94"/><circle class="cls-75" cx="38.58" cy="52.29" r="5.75"/><circle class="cls-76" cx="38.58" cy="52.29" r="5.56"/><circle class="cls-77" cx="38.58" cy="52.29" r="5.36"/><circle class="cls-78" cx="38.58" cy="52.29" r="5.17"/><circle class="cls-79" cx="38.58" cy="52.29" r="4.98"/><circle class="cls-80" cx="38.58" cy="52.29" r="4.79"/><circle class="cls-81" cx="38.58" cy="52.29" r="4.6"/><circle class="cls-82" cx="38.58" cy="52.29" r="4.41"/><circle class="cls-83" cx="38.58" cy="52.29" r="4.22"/><circle class="cls-84" cx="38.58" cy="52.29" r="4.02"/><circle class="cls-85" cx="38.58" cy="52.29" r="3.83"/><circle class="cls-86" cx="38.58" cy="52.29" r="3.64"/><circle class="cls-86" cx="38.58" cy="52.29" r="3.45"/><circle class="cls-87" cx="38.58" cy="52.29" r="3.26"/><circle class="cls-88" cx="38.58" cy="52.29" r="3.07"/><circle class="cls-89" cx="38.58" cy="52.29" r="2.87"/><circle class="cls-90" cx="38.58" cy="52.29" r="2.68"/><circle class="cls-91" cx="38.58" cy="52.29" r="2.49"/><circle class="cls-92" cx="38.58" cy="52.29" r="2.3"/><circle class="cls-93" cx="38.58" cy="52.29" r="2.11"/><circle class="cls-94" cx="38.58" cy="52.29" r="1.92"/><circle class="cls-95" cx="38.58" cy="52.29" r="1.72"/><circle class="cls-96" cx="38.58" cy="52.29" r="1.53"/><circle class="cls-96" cx="38.58" cy="52.29" r="1.34"/><circle class="cls-97" cx="38.58" cy="52.29" r="1.15"/><circle class="cls-98" cx="38.58" cy="52.29" r="0.96"/><circle class="cls-98" cx="38.58" cy="52.29" r="0.77"/><circle class="cls-99" cx="38.58" cy="52.29" r="0.57"/><circle class="cls-100" cx="38.58" cy="52.29" r="0.38"/><circle class="cls-100" cx="38.58" cy="52.29" r="0.19"/></g><path d="M60.83,66.35H16.34a4.17,4.17,0,0,1-4.17-4.17V57.24a19,19,0,0,1,19-19H46a19,19,0,0,1,19,19v5A4.17,4.17,0,0,1,60.83,66.35ZM31.17,41.63A15.65,15.65,0,0,0,15.56,57.24v4.94a.78.78,0,0,0,.78.78H60.83a.78.78,0,0,0,.78-.78V57.24A15.65,15.65,0,0,0,46,41.63Z"/><path d="M13.87,24.49A2.48,2.48,0,0,0,11.39,27v4.95H6.45a2.47,2.47,0,0,0,0,4.94h4.94v4.94a2.48,2.48,0,1,0,4.95,0V36.85h4.94a2.47,2.47,0,0,0,0-4.94H16.34V27A2.48,2.48,0,0,0,13.87,24.49Z"/></svg>